<svg xmlns="http://www.w3.org/2000/svg" width="291.087" height="78.089" viewBox="0 0 291.087 78.089"><g data-name="Group 10532"><g data-name="Group 10531" fill="#00385c"><g data-name="Group 10432"><path data-name="Path 12906" d="M87.69 33.283a8.127 8.127 0 0 1-2.632-6.3 7.254 7.254 0 0 1 2.493-5.886 9.5 9.5 0 0 1 6.787-2.285c3.186 0 2.147.069 3.116.208.831.139 1.524.277 2.147.346a.317.317 0 0 1 .346.277 6.085 6.085 0 0 1-.138 1.177v2.285c0 .346 0 .485-.277.485s-.208-.139-.208-.485a2.734 2.734 0 0 0-.831-1.939 6.277 6.277 0 0 0-4.363-1.316 5.476 5.476 0 0 0-4.017 1.316c-1.593 1.454-1.939 3.463-1.939 5.54 0 5.056 3.878 7.618 6.718 7.618s3.047-.208 3.947-1.177a5.6 5.6 0 0 0 .762-1.385c0-.346.138-.415.277-.415s.208.139.208.346a20.252 20.252 0 0 1-.485 2.839c-.138.346-.208.485-.554.623a12.308 12.308 0 0 1-3.878.485c-2.909 0-5.4-.623-7.341-2.355Z"/><path data-name="Path 12907" d="M102.164 27.259c0-3.67 2.424-8.38 8.8-8.38s8.657 3.116 8.657 7.964a8.73 8.73 0 0 1-17.452.416Zm14.474.346c0-4.779-2.77-7.756-6.233-7.756s-5.263 1.385-5.263 6.718 2.424 7.964 6.579 7.964 4.986-.762 4.986-6.925Z"/><path data-name="Path 12908" d="M125.294 32.383c0 1.662.346 2.216.762 2.355a3.052 3.052 0 0 0 1.108.138c.346 0 .346 0 .346.139s-.208.208-.485.208h-4.917c-1.108 0-.485 0-.485-.208s.139-.139.346-.139a2.526 2.526 0 0 0 .97-.138c.554-.139.623-.762.693-2.632l.208-12.673c0-.416 0-.762.277-.762s.416.277.762.693c.277.277 3.532 3.74 6.648 6.856 1.454 1.454 4.363 4.5 4.709 4.848h.139l-.208-9.626c0-1.316-.208-1.731-.693-1.939a3.24 3.24 0 0 0-1.108-.138c-.277 0-.346 0-.346-.208s.208-.208.554-.208h4.64c1.039 0 .485 0 .485.208s-.138.208-.416.208h-.623c-.623.138-.762.623-.762 1.8l-.208 13.5c0 .485-.069.693-.277.693a1.381 1.381 0 0 1-.762-.485l-6.3-6.3c-2.355-2.285-4.709-4.986-5.055-5.4l.208 9Z"/><path data-name="Path 12909" d="M157.082 33.907c0 .554 0 .623-.277.762a11.48 11.48 0 0 1-5.125.97c-5.263 0-9.9-2.493-9.9-8.38s1.8-5.817 3.74-6.995a10.325 10.325 0 0 1 5.748-1.385 24.262 24.262 0 0 1 3.809.346 12.11 12.11 0 0 0 1.662.208c.277 0 .277.138.277.277a30.766 30.766 0 0 0-.138 3.532c0 2.7 0 .416-.208.416s-.208-.139-.208-.277a2.7 2.7 0 0 0-.693-1.8 6.779 6.779 0 0 0-4.779-1.662c-2.424 0-2.77.069-4.224 1.316-1.177.97-1.939 2.632-1.939 5.263 0 4.571 2.909 8.033 7.41 8.033s1.316 0 1.8-.208c.346-.139.416-.415.416-.762v-4.5a1.091 1.091 0 0 0-.9-1.247h-.831c-.277 0-.346 0-.346-.139s.139-.208.416-.208h5.61c.693 0 .416 0 .416.208s-.139.139-.277.139h-.554c-.554.139-.762.485-.831 1.247v4.918Z"/><path data-name="Path 12910" d="M163.107 25.32v-4.5a1.091 1.091 0 0 0-.9-1.246h-.831c-.277 0-.346 0-.346-.208s.138-.208.485-.208h5.956a7.209 7.209 0 0 1 3.947.9 3.684 3.684 0 0 1 1.454 2.909c0 1.385-.693 3.047-2.839 4.779 1.87 2.424 3.393 4.294 4.64 5.609a4.155 4.155 0 0 0 2.424 1.454h.623c.208 0 .277 0 .277.139s-.139.208-.416.208h-2.008a4.606 4.606 0 0 1-2.285-.415 10.718 10.718 0 0 1-2.909-3.116c-.831-1.177-1.87-2.632-2.147-2.978-.138-.139-.208-.139-.415-.139h-1.87c-.138 0-.138 0-.138.139v.277a39.246 39.246 0 0 0 .138 4.571c0 .623.208 1.108.831 1.177.346 0 .762.069 1.039.069s.277 0 .277.138-.139.208-.416.208h-5.749c-.9 0-.415 0-.415-.208s.069-.138.346-.138a2.6 2.6 0 0 0 .762-.069c.415-.069.554-.554.623-1.177a39.211 39.211 0 0 0 .139-4.571v-3.74Zm2.493 1.731c0 .208 0 .346.208.416a5.9 5.9 0 0 0 1.593.208 2.257 2.257 0 0 0 1.524-.346 3.822 3.822 0 0 0 1.247-3.186c0-3.047-2.008-3.947-3.255-3.947s-.9 0-1.108.069c-.138 0-.208.139-.208.277Z"/><path data-name="Path 12911" d="M179.243 25.319v-4.5a1.091 1.091 0 0 0-.9-1.247h-.831c-.277 0-.346 0-.346-.208s.139-.208.485-.208h8.38a2.4 2.4 0 0 0 .9-.138c.139 0 .208-.069.346-.069s.138.069.138.208a6.287 6.287 0 0 0-.138 1.385 4.713 4.713 0 0 1-.138 1.385c0 .138 0 .208-.208.208s-.208-.139-.208-.277a1.771 1.771 0 0 0-.139-.762c-.139-.416-.346-.623-1.454-.762-.346 0-2.632-.069-3.047-.069s-.138 0-.138.208v5.4c0 .138 0 .208.138.208h3.393a1.433 1.433 0 0 0 1.039-.346c.139-.138.208-.277.346-.277s.139 0 .139.139-.069.485-.139 1.593c0 .416-.069 1.247-.069 1.454s0 .415-.208.415-.208-.069-.208-.208a3.1 3.1 0 0 0-.069-.762 1.176 1.176 0 0 0-1.177-.831h-3.047c-.554 0-.138.069-.138.208v4.982c0 1.454.415 1.8 2.562 1.8s1.454 0 2.008-.277a1.811 1.811 0 0 0 .97-1.593c0-.208.069-.346.208-.346s.139.138.139.415a12.886 12.886 0 0 1-.277 2.355c-.139.554-.346.554-1.177.554h-8.587c-.416 0-.416 0-.416-.208s.069-.139.346-.139a2.6 2.6 0 0 0 .762-.069c.416-.069.554-.554.623-1.177a39.262 39.262 0 0 0 .138-4.571v-3.878Z"/><path data-name="Path 12912" d="M191.57 35.084c-.346-.139-.416-.277-.416-.692a22.059 22.059 0 0 1 .138-2.77c0-.346.069-.554.277-.554s.208.208.208.346a3.8 3.8 0 0 0 .208 1.108 2.93 2.93 0 0 0 3.047 2.147 2.569 2.569 0 0 0 2.839-2.424c0-1.108-.346-2.008-2.078-3.393l-.97-.762c-2.355-1.87-3.186-3.324-3.186-5.055s1.939-4.017 4.917-4.017 2.285.208 2.839.346a.254.254 0 0 1 .277.277c0 .277-.069.9-.069 2.562s0 .623-.208.623-.208-.138-.208-.416a2.567 2.567 0 0 0-.554-1.385 2.783 2.783 0 0 0-2.355-1.039 2.366 2.366 0 0 0-2.562 2.216c0 1.316.485 1.731 2.285 3.047l.623.416c2.562 1.939 3.532 3.393 3.532 5.471a3.616 3.616 0 0 1-2.008 3.74 6.1 6.1 0 0 1-3.393.9 7.574 7.574 0 0 1-3.116-.554Z"/><path data-name="Path 12913" d="M204.035 35.084c-.346-.139-.415-.277-.415-.692a22.039 22.039 0 0 1 .139-2.77c0-.346.069-.554.277-.554s.208.208.208.346a3.805 3.805 0 0 0 .208 1.108 2.93 2.93 0 0 0 3.047 2.147 2.569 2.569 0 0 0 2.839-2.424c0-1.108-.346-2.008-2.078-3.393l-.969-.762c-2.355-1.87-3.186-3.324-3.186-5.055s1.939-4.017 4.917-4.017 2.285.208 2.839.346a.254.254 0 0 1 .277.277c0 .277-.069.9-.069 2.562s0 .623-.208.623-.208-.138-.208-.416a2.568 2.568 0 0 0-.554-1.385 2.783 2.783 0 0 0-2.355-1.039 2.366 2.366 0 0 0-2.562 2.216c0 1.316.485 1.731 2.285 3.047l.623.416c2.562 1.939 3.532 3.393 3.532 5.471a3.616 3.616 0 0 1-2.008 3.74 6.105 6.105 0 0 1-3.393.9 7.573 7.573 0 0 1-3.116-.554Z"/><path data-name="Path 12914" d="M217.679 25.319v-4.5c0-.693-.277-1.108-.762-1.177-.208 0-.485-.069-.762-.069s-.346 0-.346-.208.138-.139.485-.139h5.4c.831 0 .415 0 .415.139s-.138.208-.346.208h-.623c-.554.138-.762.485-.762 1.247v8.241c0 2.078 0 3.74.069 4.709 0 .554.208.97.831 1.039.277 0 .762.069 1.108.069s.346 0 .346.139-.138.208-.416.208h-6.025c-.831 0-.416 0-.416-.208s.069-.139.346-.139a2.6 2.6 0 0 0 .762-.069c.416-.069.554-.416.623-1.039a39.937 39.937 0 0 0 .138-4.64v-3.74Z"/><path data-name="Path 12915" d="M224.742 27.259c0-3.67 2.424-8.38 8.864-8.38s8.657 3.116 8.657 7.964a8.73 8.73 0 0 1-17.452.416Zm14.474.346c0-4.779-2.77-7.756-6.233-7.756s-5.263 1.385-5.263 6.718 2.424 7.964 6.579 7.964 4.986-.762 4.986-6.925Z"/><path data-name="Path 12916" d="M247.942 32.383c0 1.662.346 2.216.762 2.355a3.053 3.053 0 0 0 1.108.138c.346 0 .346 0 .346.139s-.208.208-.485.208h-4.917c-1.108 0-.485 0-.485-.208s.139-.139.346-.139a2.527 2.527 0 0 0 .97-.138c.554-.139.623-.762.692-2.632l.208-12.673c0-.416 0-.762.277-.762s.415.277.762.693c.277.277 3.532 3.74 6.648 6.856 1.454 1.454 4.363 4.5 4.709 4.848h.139l-.208-9.626c0-1.316-.208-1.731-.693-1.939a3.24 3.24 0 0 0-1.108-.138c-.277 0-.346 0-.346-.208s.208-.208.554-.208h4.64c1.039 0 .485 0 .485.208s-.139.208-.416.208h-.623c-.623.138-.762.623-.762 1.8l-.208 13.5c0 .485-.069.693-.277.693a1.073 1.073 0 0 1-.693-.485l-6.3-6.3c-2.355-2.285-4.709-4.986-5.056-5.4l.208 9Z"/><path data-name="Path 12917" d="M267.818 29.751c-.138 0-.138 0-.208.139l-1.177 3.047a4.609 4.609 0 0 0-.346 1.316c0 .416.208.692.831.692h.346c.277 0 .346 0 .346.139s-.138.208-.346.208h-4.778c-1.108 0-.416 0-.416-.208s.069-.139.277-.139h.693c.97-.138 1.385-.831 1.8-1.939l5.333-13.435c.277-.623.416-.831.623-.831s.346.208.554.693c.485 1.177 3.947 9.9 5.333 13.158.831 1.939 1.454 2.216 1.87 2.355.346 0 .623.069.9.069s.277 0 .277.138-.208.208-.97.208h-4.017c-.416 0-.623 0-.623-.139s.069-.138.277-.208c.139 0 .277-.208.208-.485l-1.731-4.5c0-.139-.138-.139-.208-.139h-4.779Zm4.363-1.108c.139 0 .139 0 .139-.139l-1.939-5.263c0-.069 0-.208-.138-.208s-.139.139-.139.208l-1.939 5.263c0 .069 0 .139.069.139Z"/><path data-name="Path 12918" d="M284.646 29.129c0 2.77 0 4.224.416 4.571.346.346.9.485 2.562.485s1.939 0 2.493-.623a2.814 2.814 0 0 0 .554-1.316c0-.208 0-.346.208-.346s.139.139.139.346a12.63 12.63 0 0 1-.346 2.424c-.139.485-.208.554-1.316.554h-8.934c-.416 0-.416 0-.416-.208s.069-.139.346-.139a2.6 2.6 0 0 0 .762-.069c.416-.069.554-.554.623-1.177a39.237 39.237 0 0 0 .138-4.571v-8.241a1.091 1.091 0 0 0-.9-1.246h-.693c-.277 0-.346 0-.346-.208s.139-.208.485-.208h5.816c.831 0 .416 0 .416.208s-.138.208-.416.208h-.831c-.554.139-.762.485-.762 1.246v8.31Z"/></g><g data-name="Group 10433"><path data-name="Path 12919" d="M87.551 44.987v-5.194c0-.831-.277-1.247-1.039-1.385-.208 0-.623-.069-.97-.069s-.415 0-.415-.208.139-.208.554-.208c1.316 0 2.839.069 3.324.069 1.177 0 2.147-.069 2.978-.069 4.432 0 5.263 2.424 5.263 3.67a5.359 5.359 0 0 1-2.493 4.294c2.008.693 4.5 2.424 4.5 5.332s-2.078 5.4-6.579 5.4-1.039 0-1.731-.069c-.762 0-1.454-.069-1.87-.069h-3.116c-.554 0-.485-.069-.485-.277s.069-.208.416-.208a3.387 3.387 0 0 0 .9-.069c.485-.069.623-.623.693-1.385a52.309 52.309 0 0 0 .138-5.263v-4.363Zm2.909.416c0 .208.069.277.208.277.208 0 .623.069 1.177.069a2.342 2.342 0 0 0 1.8-.485 3.221 3.221 0 0 0 1.039-2.632c0-1.247-.97-3.809-3.116-3.809h-.831q-.208 0-.208.416v6.094Zm3.255 2.008a3.885 3.885 0 0 0-2.078-.623h-1.039c-.346 0-.138 0-.138.138v5.817c0 1.593.069 2.078.831 2.355a4.4 4.4 0 0 0 1.8.277 2.9 2.9 0 0 0 2.978-3.186c0-2.562-.485-3.6-2.424-4.917Z"/><path data-name="Path 12920" d="M107.565 49.35c0 3.186 0 4.848.485 5.333.415.346 1.039.554 2.978.554s2.285 0 2.909-.693a3.011 3.011 0 0 0 .623-1.454c0-.208.069-.346.277-.346s.208.139.208.416a17.282 17.282 0 0 1-.346 2.839c-.139.554-.277.693-1.524.693s-3.047 0-4.155-.069c-1.108 0-2.008-.069-2.978-.069h-3.116c-.554 0-.485-.069-.485-.277s.069-.208.416-.208a3.38 3.38 0 0 0 .9-.069c.485-.069.623-.623.693-1.385a52.274 52.274 0 0 0 .139-5.263v-9.559c0-.831-.277-1.247-1.039-1.385-.208 0-.485-.069-.831-.069s-.415 0-.415-.208.139-.208.554-.208c1.177 0 2.7.069 3.393.069s2.424-.069 3.324-.069.485 0 .485.208-.139.208-.416.208a4.567 4.567 0 0 0-.97.069c-.693.138-.831.554-.9 1.385v9.557Z"/><path data-name="Path 12921" d="M120.861 50.042c-.138 0-.138 0-.208.208l-1.316 3.532a3.841 3.841 0 0 0-.346 1.524c0 .415.208.762.97.762h.346c.277 0 .346 0 .346.208s-.139.277-.416.277c-.762 0-1.87-.069-2.632-.069s-1.593.069-2.909.069-.485 0-.485-.277.069-.208.277-.208h.762c1.108-.139 1.593-.97 2.078-2.216l6.164-15.513c.277-.693.416-.969.693-.969s.346.208.623.762c.623 1.385 4.571 11.427 6.094 15.167.97 2.216 1.662 2.562 2.147 2.7a5.592 5.592 0 0 0 1.039.069c.277 0 .346 0 .346.208s-.208.277-1.108.277h-4.64c-.416 0-.762 0-.762-.208s.069-.208.346-.208a.385.385 0 0 0 .208-.554l-2.008-5.263c0-.138-.139-.138-.277-.138h-5.471Zm5.056-1.247c.138 0 .138-.069.138-.139l-2.216-6.094c0-.069 0-.208-.139-.208s-.139.139-.139.208l-2.285 6.094c0 .069 0 .139.069.139Z"/><path data-name="Path 12922" d="M137.552 54.128a9.341 9.341 0 0 1-3.047-7.272 8.34 8.34 0 0 1 2.909-6.787 10.867 10.867 0 0 1 7.756-2.632c3.67 0 2.424.069 3.6.277.97.139 1.731.346 2.493.415.277 0 .346.138.346.277s-.069.485-.139 1.385c0 .831 0 2.147-.069 2.632 0 .346-.069.554-.277.554s-.277-.208-.277-.554a3.522 3.522 0 0 0-.97-2.285 7.607 7.607 0 0 0-4.986-1.524 6.436 6.436 0 0 0-4.64 1.524c-1.8 1.662-2.285 4.017-2.285 6.371 0 5.887 4.432 8.8 7.756 8.8s3.532-.277 4.5-1.385a3.76 3.76 0 0 0 .831-1.662c.069-.415.138-.485.346-.485s.208.139.208.346a19.849 19.849 0 0 1-.554 3.255c-.139.416-.208.554-.623.693a13.554 13.554 0 0 1-4.432.554c-3.393 0-6.233-.762-8.449-2.7Z"/><path data-name="Path 12923" d="M159.921 46.095h.139c.831-.9 4.432-4.571 5.125-5.4s1.246-1.454 1.246-1.87-.069-.415-.346-.485c-.208 0-.346-.069-.346-.277s.139-.208.416-.208c.485 0 1.87.069 2.562.069s2.147-.069 2.909-.069.416 0 .416.208-.138.208-.346.208a4.71 4.71 0 0 0-1.454.277 7.452 7.452 0 0 0-2.632 1.87c-.762.762-4.5 4.432-5.333 5.332.9 1.177 5.748 6.371 6.718 7.272a11.474 11.474 0 0 0 3.532 2.632 4.705 4.705 0 0 0 1.524.346c.277 0 .346 0 .346.208s-.138.277-.623.277h-3.878a5.054 5.054 0 0 1-3.047-1.593c-1.108-.97-5.956-6.648-6.441-7.341l-.277-.346h-.143v2.216c0 2.285 0 4.225.069 5.263 0 .693.277 1.247.9 1.316.346 0 .9.069 1.177.069s.346.069.346.208-.208.277-.485.277c-1.385 0-2.909-.069-3.532-.069s-2.147.069-3.116.069-.485-.069-.485-.277.069-.208.416-.208a3.388 3.388 0 0 0 .9-.069c.485-.069.623-.623.693-1.385a52.321 52.321 0 0 0 .138-5.263v-9.557c0-.831-.277-1.247-1.039-1.385-.208 0-.623-.069-.97-.069s-.416 0-.416-.208.138-.208.554-.208c1.316 0 2.839.069 3.463.069s2.147-.069 2.978-.069.485 0 .485.208-.139.208-.346.208a2.6 2.6 0 0 0-.693.069c-.693.139-.831.554-.9 1.385v6.3Z"/><path data-name="Path 12924" d="M183.605 54.128a9.341 9.341 0 0 1-3.047-7.272 8.34 8.34 0 0 1 2.909-6.787 10.867 10.867 0 0 1 7.756-2.632c3.67 0 2.424.069 3.6.277.97.139 1.731.346 2.493.415.277 0 .346.138.346.277s-.069.485-.139 1.385c0 .831 0 2.147-.069 2.632 0 .346-.069.554-.277.554s-.277-.208-.277-.554a3.522 3.522 0 0 0-.97-2.285 7.607 7.607 0 0 0-4.986-1.524 6.436 6.436 0 0 0-4.64 1.524c-1.8 1.662-2.285 4.017-2.285 6.371 0 5.887 4.432 8.8 7.756 8.8s3.532-.277 4.5-1.385a3.759 3.759 0 0 0 .831-1.662c.069-.415.139-.485.346-.485s.208.139.208.346a19.834 19.834 0 0 1-.554 3.255c-.139.416-.208.554-.623.693a13.554 13.554 0 0 1-4.432.554c-3.393 0-6.233-.762-8.449-2.7Z"/><path data-name="Path 12925" d="M204.728 50.042c-.139 0-.139 0-.208.208l-1.316 3.532a3.84 3.84 0 0 0-.346 1.524c0 .415.208.762.969.762h.346c.277 0 .346 0 .346.208s-.138.277-.415.277c-.762 0-1.87-.069-2.632-.069s-1.662.069-2.909.069-.485 0-.485-.277.069-.208.277-.208h.762c1.108-.139 1.593-.97 2.078-2.216l6.164-15.513c.277-.693.416-.969.693-.969s.346.208.623.762c.623 1.385 4.571 11.427 6.094 15.167.97 2.216 1.662 2.562 2.147 2.7a5.592 5.592 0 0 0 1.039.069c.277 0 .346 0 .346.208s-.208.277-1.108.277h-4.64c-.416 0-.762 0-.762-.208s.069-.208.346-.208c.208 0 .346-.277.208-.554l-1.939-5.263c0-.138-.139-.138-.277-.138h-5.471Zm4.986-1.247c.139 0 .139-.069.139-.139l-2.216-6.094c0-.069 0-.208-.138-.208s-.139.139-.139.208l-2.285 6.094c0 .069 0 .139.069.139h4.571Z"/><path data-name="Path 12926" d="M219.825 44.987v-5.194c0-.831-.277-1.247-1.039-1.385-.208 0-.623-.069-.97-.069s-.415 0-.415-.208.208-.208.554-.208c1.316 0 2.839.069 3.6.069s2.147-.069 3.047-.069.554 0 .554.208-.138.208-.415.208a2.357 2.357 0 0 0-.693.069c-.693.139-.831.554-.9 1.385v8.657c0 3.6.692 5.055 1.939 6.094a4.659 4.659 0 0 0 3.116 1.039 5.154 5.154 0 0 0 3.393-1.316c1.385-1.385 1.454-3.6 1.454-6.094v-8.241c0-.831-.277-1.247-1.039-1.385-.208 0-.623-.069-.9-.069s-.416 0-.416-.208.208-.208.485-.208c1.247 0 2.839.069 2.839.069.277 0 1.87-.069 2.839-.069s.485 0 .485.208-.139.208-.416.208a2.353 2.353 0 0 0-.692.069c-.693.138-.831.554-.9 1.385v7.826c0 2.77-.277 5.679-2.355 7.41a7.278 7.278 0 0 1-5.125 1.8 7.442 7.442 0 0 1-5.471-1.731c-1.246-1.108-2.216-2.978-2.216-6.51v-3.6Z"/><path data-name="Path 12927" d="M242.263 54.128a9.341 9.341 0 0 1-3.047-7.272 8.34 8.34 0 0 1 2.909-6.787c1.8-1.593 4.086-2.632 7.826-2.632s2.424.069 3.6.277c.97.139 1.731.346 2.493.415.277 0 .346.138.346.277s-.069.485-.139 1.385c0 .831 0 2.147-.069 2.632 0 .346-.069.554-.277.554s-.277-.208-.277-.554a3.522 3.522 0 0 0-.969-2.285 7.468 7.468 0 0 0-4.986-1.524 6.323 6.323 0 0 0-4.64 1.524c-1.8 1.662-2.285 4.017-2.285 6.371 0 5.887 4.432 8.8 7.756 8.8s3.532-.277 4.5-1.385a3.76 3.76 0 0 0 .831-1.662c.069-.415.139-.485.346-.485s.208.139.208.346a19.84 19.84 0 0 1-.554 3.255c-.138.416-.208.554-.623.693a13.554 13.554 0 0 1-4.432.554c-3.393 0-6.233-.762-8.449-2.7Z"/><path data-name="Path 12928" d="M260.546 44.987v-5.194c0-.831-.277-1.247-1.039-1.385-.208 0-.623-.069-.97-.069s-.416 0-.416-.208.139-.208.554-.208c1.316 0 2.839.069 3.6.069s2.147-.069 3.047-.069.554 0 .554.208-.138.208-.415.208a2.357 2.357 0 0 0-.693.069c-.693.139-.831.554-.9 1.385v8.657c0 3.6.693 5.055 1.939 6.094a4.6 4.6 0 0 0 3.047 1.039 5.283 5.283 0 0 0 3.393-1.316c1.385-1.385 1.454-3.6 1.454-6.094v-8.241c0-.831-.277-1.247-1.039-1.385-.208 0-.623-.069-.9-.069s-.415 0-.415-.208.138-.208.485-.208c1.247 0 2.839.069 2.839.069.277 0 1.87-.069 2.839-.069s.485 0 .485.208-.139.208-.415.208a2.354 2.354 0 0 0-.693.069c-.693.138-.831.554-.9 1.385v7.826c0 2.77-.277 5.679-2.355 7.41a7.279 7.279 0 0 1-5.125 1.8 7.442 7.442 0 0 1-5.471-1.731c-1.247-1.108-2.216-2.978-2.216-6.51v-3.6Z"/><path data-name="Path 12929" d="M281.253 56.207c-.416-.138-.485-.277-.485-.831a30.451 30.451 0 0 1 .139-3.255c0-.346.069-.623.277-.623s.277.208.277.416a4.266 4.266 0 0 0 .208 1.247 3.445 3.445 0 0 0 3.532 2.493 3.032 3.032 0 0 0 3.324-2.839c0-1.316-.346-2.355-2.424-3.947l-1.108-.9c-2.7-2.147-3.67-3.878-3.67-5.817s2.285-4.64 5.679-4.64 2.632.277 3.255.416a.317.317 0 0 1 .346.277c0 .346-.069 1.039-.069 2.978s-.069.762-.277.762-.277-.139-.277-.415a3.284 3.284 0 0 0-.623-1.662 3.089 3.089 0 0 0-2.7-1.177 2.69 2.69 0 0 0-2.909 2.562c0 1.524.554 2.008 2.632 3.532l.692.485c2.978 2.216 4.017 3.947 4.017 6.3s-.554 3.116-2.285 4.294a7.5 7.5 0 0 1-3.948 1.039 8.567 8.567 0 0 1-3.6-.623Z"/></g></g><g data-name="Group 10478"><path data-name="Path 12975" d="M37.176 26.252c.714.11.769.549.824 1.318 0 .769-.11 4.064-.11 4.558s-.494.6-1.1.439-.714-.439-.659-.824v-5.052a1.158 1.158 0 0 1 1.045-.439Z" fill="none"/><path data-name="Path 12976" d="M39.428 27.127a.944.944 0 0 1 .934.824c0 .494.165 3.789.11 4.173a.8.8 0 0 1-.934.769c-.549-.11-.494-.275-.549-.769l-.11-4.393s.165-.659.549-.659Z" fill="none"/><path data-name="Path 12977" d="M11.314 76.605c1.043-.494 2.142 0 2.087.439v.439h-3.187a2.245 2.245 0 0 1 1.1-.878Z" fill="none"/><path data-name="Path 12978" d="M34.211 40.911c1.208 0 1.1.6 1.208 1.7a41.088 41.088 0 0 1-.439 7.413c-.329.934-1.208.494-1.043 1.373.165.824.494 2.691-.714 3.734-1.208 1.1-1.867 1.153-2.361.714-.494-.494-1.263-1.373-.384-1.428.879 0 .769.329 1.538 0 .769-.384 1.153-1.922.714-3.295s-.769-1.592-1.373-1.428a2.068 2.068 0 0 1-1.1 0 67.092 67.092 0 0 1 1.208-7.358 2.65 2.65 0 0 1 2.8-1.373Z" fill="none"/><path data-name="Path 12979" d="M3.186 76.989c.714-.11.494-.934.824-1.208.329-.329.988.275 1.373.22.384 0-.11-.769.22-1.208.329-.384.549.384 1.483.33.988 0 0-.879.329-1.373s1.208.275 1.977.165.165-1.208.824-1.318.934.6 1.318.549c.384-.11-.22-.933.659-1.208.879-.329 1.263.329 1.757.165.549-.11 0-.879.494-.988s1.208.494 1.592.494.329-.549.824-.988c.549-.439 1.263.714 1.647.769.384 0 0-.988.714-1.263.769-.275.439.549 1.7.494 1.263-.11.11-.824 1.043-1.1s1.1.494 1.757.439c.659 0 .22-.494.714-.769s.934.494 1.373.549c.439 0 .384-.879 1.1-1.1s.494.6 1.428.824.769-.439 1.592-.824.769.494 1.7.33c.934-.11.494-.549 1.1-.714s1.538.659 1.867.659.549-.6 1.1-.824 1.483.769 1.922.824c.384 0 1.1-.714 2.142-.824s1.647 1.153 2.416 1.208c.769 0 .934-.549 1.263-.549s1.208.824 1.922.879c.714 0 .988-.659 1.483-.769s.824 1.043 1.7 1.153.824-.329 1.318-.494c.549-.165 1.647.714 1.977.934s.549-.275 1.757-.494 1.153.879 1.592 1.1.879-.384 1.483-.549c.6-.11 1.263.988 1.757 1.208.549.22.659-.22 1.647-.275.988 0 .329.659.329.659h2.471c1.153 0 1.043.439 2.032.6s1.263.33 1.7 1.428c.439 1.043 1.7.33 2.581.714.879.33.6.275 1.263 1.208.6.988 1.7 0 3.13.769a1.493 1.493 0 0 1 .659.659h-3.02c-1.483-.6-3.46-1.373-5.491-2.032C61.39 74.02 43.268 71 34.647 71a71.092 71.092 0 0 0-22.734 3.9 40.712 40.712 0 0 0-6.42 2.638h-3.9l.055-.055c.329-.329.824-.329 1.483-.439Z" fill="none"/><path data-name="Path 12980" d="M34.76 23.283a25.9 25.9 0 0 0-4.119.549c-1.592.494-2.2 1.483-2.965 1.153-.824-.329-.329-1.263.165-1.483a12.758 12.758 0 0 1 3.514-1.428 8.316 8.316 0 0 1 3.789-.165c.6.275.824 1.153-.384 1.318Z" fill="none"/><path data-name="Path 12981" d="M30.148 26.468a1.11 1.11 0 0 1 1.153 1.1c.11.714 0 4.118 0 4.668a1.2 1.2 0 0 1-1.208 1.1c-.6 0-.824-.494-.824-1.428v-4.723a1.213 1.213 0 0 1 .934-.714Z" fill="none"/><path data-name="Path 12982" d="M33.662 38.22a1.086 1.086 0 0 1 1.153 1.153c-.494.33-2.2.659-3.46 1.153s-.494-.494-1.428-.769c-.879-.275-1.812.988-3.02 1.208s-.934 0-.824-.824 1.592-1.1 3.295-1.483a15.723 15.723 0 0 1 4.283-.439Z" fill="none"/><path data-name="Path 12983" d="M32.234 20.537c-1.318.11-1.373.549-2.087.714s-.659 0-.879-.494c-.22-.439.494-.714.494-.714s.824-.275 1.867-.549a3.9 3.9 0 0 1 2.581-.165c.714.329.879.824.494 1.208-.439.439-1.043 0-2.361 0Z" fill="none"/><path data-name="Path 12984" d="M38.22 72.156c1.922-.11 3.185.769 3.295 1.263v4.064h-1.538v-2.306c-.055-1.1-1.428-1.153-1.428-1.153-.659 0-1.867.659-1.867 1.263v2.2h-1.318v-3.523c.11-1.483.934-1.7 2.91-1.812Z" fill="none"/><path data-name="Path 12985" d="M46.128 72.76c1.373 0 2.8.769 2.91 1.428v3.295H47.61c0-.769.055-1.483 0-1.812a1.712 1.712 0 0 0-1.483-1.757 1.57 1.57 0 0 0-1.922 1.373v2.2h-1.537c0-1.647 0-3.24.055-3.789.11-1.263 1.977-.988 3.35-.988Z" fill="none"/><path data-name="Path 12986" d="M55.463 74.902a13.525 13.525 0 0 1 .11 2.636H54.31V76.11c-.055-.879-1.483-1.1-1.483-1.1a1.17 1.17 0 0 0-.988.824c0 .165 0 .824-.055 1.647h-1.593a7.9 7.9 0 0 1 .494-3.514c.879-1.481 4.506.277 4.778.935Z" fill="none"/><path data-name="Path 12987" d="M57.44 74.797c1.043-.549 3.679.824 3.789 1.373 0 .11.055.659.055 1.318h-1.153a1.343 1.343 0 0 0-1.153-1.208c-.714-.22-1.043.275-1.043.824v.384h-1.536v-.165c0-1.483-.11-2.032.934-2.581Z" fill="none"/><path data-name="Path 12988" d="M17.023 74.683c1.538-.439 2.416 0 2.416.824v1.977h-1.537c0-.769-.11-1.208-1.043-1.153a1.236 1.236 0 0 0-1.1.879v.275h-1.317v-.384c0-1.208 1.043-2.032 2.581-2.471Z" fill="none"/><path data-name="Path 12989" d="M66.556 77.483h-4.119a4.168 4.168 0 0 1 .055-.879c.22-1.427 3.185.165 4.064.879Z" fill="none"/><path data-name="Path 12990" d="M20.702 76.435c.11-1.043-.11-1.428.549-2.2.6-.769 2.691-1.208 3.844-1.208s1.153.494 1.263 1.208c0 .275.055 1.647.11 3.295h-1.266a5.391 5.391 0 0 0-.055-1.1c-.11-.824-1.483-.988-1.483-.988-.769.055-1.373.494-1.373 1.1v.934h-1.589v-1.1Z" fill="none"/><path data-name="Path 12991" d="M34.266 26.249a29.981 29.981 0 0 1 .275 5.381c-.165.714-1.592.988-1.647.11 0-.879-.165-5.052-.165-5.491-.001 0 1.317-.824 1.537 0Z" fill="none"/><path data-name="Path 12992" d="M30.862 72.541c1.812-.165 2.965.549 3.075 1.208.055.275.055 1.977.11 3.734h-1.318V76.22c0-.824-.275-1.647-1.428-1.592s-1.867.439-1.867 1.153 0 .934-.055 1.7h-1.757a34.223 34.223 0 0 1 .165-3.46c.165-.988 1.263-1.373 3.13-1.538Z" fill="none"/><path data-name="Path 12993" d="M49.972 61.668c-.275 0-3.02 0-3.569-.384-.549-.329-.22-1.263.714-1.263s2.91.22 3.13.769c.165.494.384.824-.22.879Z" fill="none"/><path data-name="Path 12994" d="M58.537 56.127c-.494-.494-3.514-6.7-3.514-6.7s.6-.659 1.153-.22c.494.439 3.789 6.37 3.569 7.029-.165.659-.769.439-1.208 0Z" fill="none"/><path data-name="Path 12995" d="M60.13 62.053c-.6-.22-.329-.824.549-.824a10.4 10.4 0 0 1 3.844 1.592.547.547 0 0 1-.11.6s-3.679-1.153-4.283-1.428Z" fill="none"/><path data-name="Path 12996" d="M53.761 57.495c0-.329-1.043-3.9-1.373-5s0-1.483.714-1.153c.714.384 1.867 4.393 1.867 5.162 0 .824-1.208 1.263-1.208.934Z" fill="none"/><path data-name="Path 12997" d="M66.995 69.631c-1.153.275-2.251.165-2.581-.494a1.374 1.374 0 0 1 1.263-.769c.879.11 2.471.988 1.318 1.263Z" fill="none"/><path data-name="Path 12998" d="M34.486 37.012h-2.91a18.816 18.816 0 0 0-3.24.769c-.769.11-1.812-1.153-.494-1.757a15.7 15.7 0 0 1 5.162-1.043c1.592 0 3.24.549 2.91 1.318-.275.769-.769.714-1.538.714Z" fill="none"/><path data-name="Path 12999" d="M49.642 65.237c-.659 0-3.13-.659-3.679-1.483s3.185-.165 4.558.165c1.373.385-.879 1.318-.879 1.318Z" fill="none"/><path data-name="Path 13000" d="M53.321 64.249c1.208 0 3.13.22 3.02.934s-.329.714-.769.659c-.439 0-2.746-.165-2.746-.165s-.713-1.428.495-1.428Z" fill="none"/><path data-name="Path 13001" d="M43.492 61.173c-.22 0-2.746-.165-2.746-.165s-1.538-.988 0-1.208c1.592-.22 3.734.165 3.844.714.11.494 0 .659-1.153.714Z" fill="none"/><path data-name="Path 13002" d="M61.997 64.248c.6.6.714 1.208 0 1.208 0 0-2.032-.165-1.922-.769a1.288 1.288 0 0 1 1.922-.494Z" fill="none"/><path data-name="Path 13003" d="M46.456 57.439s-.769-4.393.11-4.064 1.757 2.746 1.1 3.624c-.66.825-1.21.44-1.21.44Z" fill="none"/><path data-name="Path 13004" d="M44.26 75.341a1.63 1.63 0 0 1 1.922-1.373 1.676 1.676 0 0 1 1.483 1.757v1.812h-3.4Z" fill="#e42229"/><path data-name="Path 13005" d="M31.301 74.63c1.153-.055 1.428.769 1.428 1.592v1.263h-3.35c0-.769.055-1.428.055-1.7 0-.718.714-1.102 1.867-1.155Z" fill="#e42229"/><path data-name="Path 13006" d="M59.087 76.275a1.463 1.463 0 0 1 1.153 1.208h-2.141v-.384c0-.6.329-1.043 1.043-.824Z" fill="#e42229"/><path data-name="Path 13007" d="M38.549 74.078s1.373.055 1.428 1.153v2.306h-3.35v-2.2c0-.659 1.208-1.263 1.867-1.263Z" fill="#e42229"/><path data-name="Path 13008" d="M16.86 76.389c.879-.055 1.043.384 1.043 1.153H15.76v-.275a1.236 1.236 0 0 1 1.1-.878Z" fill="#e42229"/><path data-name="Path 13009" d="M52.826 75.012s1.428.165 1.483 1.1v1.428h-2.526a10.749 10.749 0 0 1 .055-1.647 1.109 1.109 0 0 1 .988-.824Z" fill="#e42229"/><path data-name="Path 13010" d="M23.613 75.451s1.373.11 1.483.988a10.525 10.525 0 0 0 .055 1.1H22.24v-.934c0-.6.6-1.043 1.373-1.1Z" fill="#e42229"/><path data-name="Path 13011" d="M73.584 76.879c-1.428-.769-2.471.165-3.13-.769-.6-.988-.329-.879-1.263-1.208-.879-.33-2.142.329-2.581-.714a1.855 1.855 0 0 0-1.7-1.428c-.988-.165-.879-.6-2.032-.6H60.4s.659-.714-.329-.659c-.988 0-1.1.494-1.647.275s-1.153-1.373-1.757-1.208c-.6.11-1.043.769-1.483.549s-.384-1.318-1.592-1.1-1.373.714-1.757.494c-.329-.22-1.483-1.1-1.977-.934-.549.165-.439.549-1.318.494-.879-.11-1.208-1.263-1.7-1.153s-.769.824-1.483.769c-.714 0-1.538-.879-1.922-.879s-.549.549-1.263.549c-.769 0-1.373-1.318-2.416-1.208s-1.757.879-2.142.824c-.384 0-1.373-1.043-1.922-.824s-.824.824-1.1.824-1.263-.824-1.867-.659-.165.549-1.1.714c-.934.11-.824-.769-1.7-.329-.824.384-.659 1.043-1.592.824s-.714-1.043-1.428-.824-.659 1.153-1.1 1.1c-.439 0-.879-.769-1.373-.549-.494.275 0 .714-.714.769-.659 0-.824-.714-1.757-.439s.165.988-1.043 1.1c-1.263.11-.934-.769-1.7-.494s-.329 1.318-.714 1.263c-.384 0-1.1-1.208-1.647-.769s-.439.988-.824.988-1.1-.549-1.593-.494c-.494.11 0 .824-.494.988-.549.11-.879-.494-1.757-.165s-.275 1.153-.659 1.208c-.384.11-.659-.659-1.318-.549s-.11 1.208-.824 1.318c-.769.11-1.592-.659-1.977-.165-.329.494.659 1.318-.329 1.373-.988 0-1.208-.769-1.483-.329-.329.384.165 1.153-.22 1.208-.384 0-1.043-.549-1.373-.22s-.11 1.1-.824 1.208-1.153.11-1.483.439l-.055.055H0a15.772 15.772 0 0 1 2.416-1.867 55.042 55.042 0 0 1 22.24-7.853c10.983-1.428 25.535-.11 32.289 1.592 6.754 1.647 10.489 2.471 10.489 2.471l.165-.714s-13.014-3.679-17.737-4.338c-4.723-.6-5.491-.988-5.491-.988s0-1.867-1.318-1.647c-1.318.165-2.306 1.647-3.46 1.208s-1.757-2.361-3.789-2.142c-2.032.275-1.977 2.361-3.35 2.032-1.428-.33-2.471-2.087-3.734-1.757s-2.306 2.361-4.009 2.361-2.581-2.032-3.9-1.318-1.153 2.581-2.746 2.361c-1.592-.165-1.592-1.318-3.185-.879s-1.153 2.306-2.746 2.361c-1.592.11-2.581-1.043-3.46.11s.11 1.208-1.043 1.428c-1.153.165-1.483-.6-2.306 0s.879 1.208-.988 1.592c-1.867.33-1.483-.6-2.2-.11-.714.549-1.592 1.7-1.977 1.318-.329-.33 1.153-2.142 5.217-4.119a65.154 65.154 0 0 1 22.624-6.59c10.214-.988 11.257-.769 11.257-.769l-.165-1.647-3.13-.329-.544-2.31a3.921 3.921 0 0 1-3.24 1.867c-2.251 0-3.35-2.087-3.35-4.5a50.554 50.554 0 0 1 1.208-8.786 23.535 23.535 0 0 0 .549-4.119 8.033 8.033 0 0 0-3.569 3.35c-1.043 2.251-1.208 2.251-.879 2.965s.934.934.11 1.647-1.483 1.1-1.428 1.483c.11.384 1.373-.769 2.087-.384s1.263 3.13.11 3.844c-1.1.714-2.471-1.592-2.636-.769a2.462 2.462 0 0 0 1.153 2.581c1.043.439.494.494.6 1.208.11.769 1.318.769.659 1.318s-3.734.659-3.679-1.208a40.472 40.472 0 0 1 2.361-10.983c1.263-3.02 1.373-3.679.22-3.9-1.153-.165-2.91 1.592-3.844 3.24a7.77 7.77 0 0 0-1.373 3.844c.11.549.494.6.165 1.043s-1.1 1.043-1.208 1.867c-.11.769-.275 1.318.11 1.263.329 0 .824-1.7 1.812-1.373s.879 1.977.384 3.02a1.072 1.072 0 0 1-1.977.11c-.329-.769-.549-1.263-.769-.769-.165.549-.714 2.142.11 2.416s1.812-.275 1.757.549c0 .769-.439 1.043-.11 1.7s-.22 1.592-1.318 1.318-2.032-1.483-1.483-5.107a40.741 40.741 0 0 1 2.8-9.39c.714-1.483.824-1.538.384-1.538s-3.24 2.251-4.283 4.064a13.594 13.594 0 0 0-1.538 3.954c-.11.549 1.1 0 1.208 1.7.11 1.757-.824 3.02-1.593 3.02s-.934.6-.6 1.318 1.867-.6 2.087.11-.275 2.965-1.318 3.295-2.2.384-1.922-2.361a46.022 46.022 0 0 1 1.483-8.512c.659-1.812.988-2.581.659-2.746a3.265 3.265 0 0 0-2.416 2.416 57.312 57.312 0 0 0-1.263 7.468c0 1.647.6 4.723-.329 5-.988.329-1.977-1.647-1.263-3.789a35.76 35.76 0 0 0 1.208-5.546c.22-1.263 1.263-2.855.439-2.855s-2.361 2.032-2.581 3.679a10.64 10.64 0 0 0 0 3.24c0 1.318-.439 2.142-.439 3.24s.659 2.8 0 2.581c-.714-.275-.769-1.043-.769-1.922s.549-3.734 0-3.46c-.549.329-.549 2.526-1.043 4.119s-.384 3.4-1.263 3.075-.165-4.283.549-7.029c.659-2.8 3.185-6.974 6.809-10.1a34.344 34.344 0 0 1 7.962-5.272c1.757-.879 3.02-1.647 3.02-1.647a3.15 3.15 0 0 1 .769-2.251 18.28 18.28 0 0 1 1.592-1.428 4.961 4.961 0 0 1 .6-2.361 13.013 13.013 0 0 1 1.318-1.7v-7.249a2.636 2.636 0 0 1-2.032-2.636 2.275 2.275 0 0 1 1.647-2.361 12.925 12.925 0 0 1 1.263-3.46c.769-.988 3.13-1.922 3.35-3.24a59.106 59.106 0 0 0 .714-8.347c-.11-2.636.329-6.809 1.977-6.809s1.263 1.647 1.7 2.746a23.962 23.962 0 0 1 .769 6.645 7.659 7.659 0 0 0 .11 2.91c.275 1.812.275.329.22 1.867 0 1.483-.494 1.318.329 2.251s1.922 1.428 1.977 2.087c.11.714 0 1.647.549 2.251.6.549 2.691 1.977 2.416 3.569s-1.153 2.142-1.153 2.856-.22 6.04.22 7.084 1.593.439 1.922 1.647 0 2.032 1.263 2.306c1.208.275 1.647-.769 1.977.549s1.7 2.416 1.7 2.636-3.734-1.043-5.656-1.263c-1.977-.22-2.032.769-2.91.494a4.432 4.432 0 0 0-2.91-.275c-.988.384-1.318 2.142-1.428 4.173-.11 2.087 0 5.052.384 5.272.329.22 1.922.11 1.922 2.251a5.379 5.379 0 0 1-1.867 3.679s.549 1.208 1.647.824c1.043-.384 1.318-2.91 1.483-4.228a9.6 9.6 0 0 0 0-2.032 13.774 13.774 0 0 1 .824 4.558c-.11 2.032 0 3.295.549 2.855.494-.439.494-5.931 0-9.61-.439-3.679-1.647-6.59-.11-6.37 1.483.275 4.338 6.754 5.052 8.237s1.1 2.251 1.483 2.087-1.757-5.766-2.471-7.8c-.769-2.032-1.592-2.91-.6-2.636s5.327 5.766 5.821 5.986-.11-1.7-.769-2.8c-.659-1.043-1.043-1.7 0-1.593s9.555 3.789 12.575 8.182c3.075 4.393 5.052 7.249 5.436 7.468.329.22 1.483.549 1.318 1.153-.165.549-1.647.769-1.153 1.867a4.48 4.48 0 0 1 .6 2.032c.11.988.11 2.526.6 2.856s3.02.988 3.4 2.581 2.142 1.7 2.306 3.02c.165 1.263.165 2.361 1.538 3.46a9.016 9.016 0 0 1 1.593 1.647h-3.4a1.865 1.865 0 0 0-.659-.659Zm-34.6-44.755c.11.494 0 .659.549.769a.8.8 0 0 0 .934-.769c0-.439 0-3.679-.11-4.173a.905.905 0 0 0-.934-.824c-.439 0-.549.659-.549.659l.11 4.393Zm-2.2.439c.6.165 1.1.11 1.1-.439s.165-3.789.11-4.558c0-.769-.11-1.208-.824-1.318a1.165 1.165 0 0 0-1.1.439v5.052c0 .439.11.659.714.824ZM30.2 49.7a2.069 2.069 0 0 0 1.1 0c.6-.165.934.11 1.373 1.428.439 1.373 0 2.91-.714 3.295-.769.384-.6 0-1.538 0-.879 0-.165.933.384 1.428s1.153.384 2.361-.714.824-2.91.714-3.734c-.165-.824.714-.439 1.043-1.373a41.389 41.389 0 0 0 .439-7.413c-.11-1.1 0-1.647-1.208-1.7-1.263 0-2.361.329-2.8 1.373a69.27 69.27 0 0 0-1.208 7.358Zm-4.118-9.5c-.11.824-.384 1.043.824.824s2.142-1.483 3.02-1.208.165 1.208 1.428.769c1.263-.494 2.965-.824 3.46-1.153a1.129 1.129 0 0 0-1.153-1.153 16.123 16.123 0 0 0-4.283.439c-1.7.439-3.24.714-3.295 1.483Zm8.072-20.922a3.9 3.9 0 0 0-2.581.165c-1.043.275-1.867.549-1.867.549s-.714.22-.494.714.165.659.879.494c.714-.11.769-.6 2.087-.714s1.922.384 2.361 0c.439-.439.22-.879-.494-1.208Zm.989 2.691a8.316 8.316 0 0 0-3.789.165 12.76 12.76 0 0 0-3.514 1.428c-.494.165-.988 1.153-.165 1.483s1.373-.659 2.965-1.153a20.792 20.792 0 0 1 4.119-.549c1.208-.165.988-1.043.384-1.318Zm-5.931 9.884c0 .879.22 1.373.824 1.428a1.245 1.245 0 0 0 1.208-1.1c0-.549.11-3.954 0-4.668s-.494-1.153-1.153-1.1a1.114 1.114 0 0 0-.934.714v4.723Zm3.679-.11c0 .879 1.538.6 1.647-.11a30.224 30.224 0 0 0-.275-5.382c-.165-.824-1.538 0-1.538 0 .004.492.113 4.61.168 5.489Zm.165 3.24a15.7 15.7 0 0 0-5.162 1.043c-1.318.549-.275 1.812.494 1.757a25.857 25.857 0 0 1 3.24-.769h2.91c.769 0 1.208 0 1.538-.714.275-.769-1.318-1.318-2.91-1.318ZM62 65.457c.714 0 .6-.6 0-1.208s-1.867-.11-1.922.494c-.11.549 1.922.769 1.922.769Zm-9.171.165s2.306.165 2.746.165.659 0 .769-.659c.11-.714-1.867-.934-3.02-.934s-.497 1.428-.497 1.428Zm-8.237-5.162c-.11-.494-2.2-.933-3.844-.714-1.593.22 0 1.208 0 1.208s2.526.22 2.746.165c1.208 0 1.208-.165 1.153-.714Zm1.977-7.084c-.879-.329-.11 4.064-.11 4.064s.494.439 1.208-.439c.657-.824-.222-3.295-1.1-3.625Zm3.624 7.358c-.165-.494-2.2-.769-3.13-.769s-1.263.933-.714 1.263a14.669 14.669 0 0 0 3.569.384c.6 0 .439-.384.22-.879Zm.275 3.185c-1.373-.384-5.107-1.043-4.558-.165.549.824 3.02 1.483 3.679 1.483 0 0 2.2-.933.879-1.318ZM53.1 51.4c-.714-.384-1.043 0-.714 1.153.329 1.1 1.373 4.668 1.373 5s1.153-.165 1.208-.934c0-.824-1.153-4.777-1.867-5.162Zm3.075-2.251c-.549-.439-1.153.22-1.153.22s3.02 6.26 3.514 6.7c.494.494 1.043.714 1.208 0 .165-.659-3.075-6.59-3.569-7.029Zm8.347 13.728a9.648 9.648 0 0 0-3.844-1.593c-.934 0-1.153.549-.549.824.6.22 4.283 1.428 4.283 1.428a.547.547 0 0 0 .11-.6Zm1.153 5.491a1.29 1.29 0 0 0-1.263.769c.33.659 1.483.824 2.581.494 1.155-.275-.438-1.154-1.316-1.264Z" fill="#e42229"/><path data-name="Path 13012" d="M34.705 71.003c8.621 0 26.743 3.02 31.081 4.448 2.032.659 4.009 1.428 5.491 2.032h-4.666c-.879-.714-3.844-2.251-4.064-.879a5.7 5.7 0 0 1-.055.879h-1.1a6.414 6.414 0 0 0-.055-1.318c-.11-.549-2.746-1.922-3.789-1.373s-.934 1.043-.934 2.581v.165h-.934a13.857 13.857 0 0 0-.11-2.636c-.329-.659-3.9-2.416-4.777-.934a10.4 10.4 0 0 0-.494 3.514h-1.1v-3.295c-.11-.659-1.483-1.428-2.91-1.428-1.373 0-3.185-.275-3.35.988-.055.549-.055 2.142-.055 3.789h-1.208v-4.064c-.11-.494-1.318-1.428-3.295-1.263-1.977.11-2.8.33-2.91 1.812v3.514h-1.26a27.207 27.207 0 0 0-.11-3.734c-.11-.659-1.263-1.428-3.075-1.208-1.812.165-2.91.549-3.13 1.538-.055.439-.11 1.867-.165 3.46h-1.153c0-1.647-.11-3.02-.11-3.295-.11-.714-.11-1.208-1.263-1.208s-3.24.439-3.844 1.208-.439 1.153-.549 2.2v1.1h-1.208v-1.977c0-.769-.879-1.263-2.416-.824s-2.526 1.263-2.581 2.471v.384h-.988v-.439c0-.384-1.043-.934-2.087-.439a2.527 2.527 0 0 0-1.1.879H5.711a46.723 46.723 0 0 1 6.425-2.636 72.923 72.923 0 0 1 22.734-3.9Z" fill="#e42229"/></g></g></svg>