<svg xmlns="http://www.w3.org/2000/svg" width="253.334" height="193.965" viewBox="0 0 253.334 193.965"><g data-name="Group 10461"><g data-name="Group 10431"><path data-name="Path 12885" d="M.17 187.266h4.325l1.357-4.241 1.442 4.241h4.325l-3.477 2.46 1.272 4.241-3.562-2.544-3.477 2.544 1.272-4.241-3.477-2.46Z" fill="#e51e25" fill-rule="evenodd"/><path data-name="Path 12886" d="M19.592 187.266h4.325l1.357-4.241 1.357 4.241h4.325l-3.477 2.46 1.272 4.241-3.477-2.544-3.477 2.544 1.272-4.241-3.477-2.46Z" fill="#e51e25" fill-rule="evenodd"/><path data-name="Path 12887" d="M38.166 187.266h4.325l1.357-4.241 1.357 4.241h4.41l-3.562 2.46 1.357 4.241-3.562-2.544-3.477 2.544 1.272-4.241-3.477-2.46Z" fill="#e51e25" fill-rule="evenodd"/><path data-name="Path 12888" d="M205.246 187.266h4.326l1.357-4.241 1.442 4.241h4.326l-3.562 2.46 1.357 4.241-3.562-2.544-3.477 2.544 1.272-4.241-3.477-2.46Z" fill="#e51e25" fill-rule="evenodd"/><path data-name="Path 12889" d="M223.48 187.266h4.325l1.357-4.241 1.442 4.241h4.325l-3.562 2.46 1.357 4.241-3.562-2.544-3.477 2.544 1.272-4.241-3.477-2.46Z" fill="#e51e25" fill-rule="evenodd"/><path data-name="Path 12890" d="M241.715 187.266h4.326l1.356-4.241 1.442 4.241h4.325l-3.562 2.46 1.357 4.241-3.562-2.544-3.477 2.544 1.272-4.241-3.477-2.46Z" fill="#e51e25" fill-rule="evenodd"/><g data-name="Group 10430" fill="#00385c"><path data-name="Path 12891" d="M61.826 187.859v-2.375c0-.424-.085-.594-.509-.679h-.424c-.17 0-.17 0-.17-.085s0-.085.255-.085h5.089c.085 0 0 0 0 .085a4.328 4.328 0 0 1-.085.763v.763a.083.083 0 0 1-.085.085c-.085 0-.085 0-.085-.17v-.425c0-.17-.17-.339-.763-.424h-1.611c-.255 0 0 0 0 .085v2.968h1.788c.254 0 .424 0 .509-.17a.182.182 0 0 1 .17-.17c.085 0 0 0 0 .085a5.715 5.715 0 0 1-.085.848v.763c0 .085 0 .254-.085.254s-.085 0-.085-.085v-.424c0-.254-.254-.424-.594-.424h-1.611c-.255 0 0 0 0 .085v2.714c0 .763.169.933 1.357.933s.763 0 1.1-.17a1.058 1.058 0 0 0 .509-.848c0-.085 0-.169.085-.169s.085.085.085.169a6.554 6.554 0 0 1-.17 1.272c0 .254-.17.254-.594.254h-4.58c-.169 0-.254 0-.254-.085s0-.085.17-.085h.424c.254 0 .254-.254.339-.594v-4.41Z"/><path data-name="Path 12892" d="M70.225 192.948c-.17 0-.17-.085-.17-.339v-1.272c0-.17 0-.254.085-.254s.085.085.085.17a1.26 1.26 0 0 0 .085.509 1.6 1.6 0 0 0 1.611.933 1.311 1.311 0 0 0 1.357-1.187c0-.679-.085-.848-1.018-1.357l-.594-.339c-1.187-.679-1.526-1.357-1.526-2.205a2.464 2.464 0 0 1 2.544-1.951c1.442 0 1.187.085 1.442.17.085 0 .17 0 .17.085v1.187c0 .763 0 .339-.085.339s-.085 0-.085-.17a.631.631 0 0 0-.255-.594 1.342 1.342 0 0 0-1.1-.424c-.679 0-1.357.339-1.357 1.018s.17.763 1.018 1.272l.424.255c1.272.763 1.7 1.442 1.7 2.375a1.77 1.77 0 0 1-1.018 1.781 2.98 2.98 0 0 1-1.7.424 3.235 3.235 0 0 1-1.611-.254Z"/><path data-name="Path 12893" d="M80.233 186.417h-1.442c-.594 0-.848.085-.933.339-.085.17-.17.254-.17.339a.083.083 0 0 1-.085.085c-.085 0-.085 0-.085-.17a4.9 4.9 0 0 1 .254-1.187c0-.085 0-.17.085-.17a1.485 1.485 0 0 1 .424.085h6.022v1.357c0 .085 0 .17-.085.17 0 0-.085 0-.085-.17 0-.339-.255-.678-1.187-.678h-1.272v5.937c0 .254.085.424.424.509h.509c.17 0 .17 0 .17.085 0 0 0 .085-.17.085h-2.884c-.339 0-.17 0-.17-.085s0-.085.17-.085h.339c.17 0 .255-.255.255-.509v-5.937Z"/><path data-name="Path 12894" d="M87.863 190.657h-.085l-.509 1.272a3.459 3.459 0 0 0-.17.594c0 .17.085.255.424.255h.17c.085 0 .17 0 .17.085 0 0 0 .085-.17.085h-2.29c-.594 0-.17 0-.17-.085s0-.085.085-.085h.254c.424 0 .594-.339.848-.848l2.629-6.022c.085-.254.17-.424.254-.424.17 0 .17.085.254.339.255.509 1.866 4.5 2.544 5.937.424.848.679 1.018.848 1.018h.339c.085 0 .17 0 .17.085s0 .085-.424.085h-2.205a.083.083 0 0 1 .085-.085.186.186 0 0 0 .085-.254l-.763-1.951h-2.46Zm2.12-.509-.933-2.46-.933 2.46h1.951Z"/><path data-name="Path 12895" d="M96.602 188.623v-2.035c0-.339-.085-.424-.424-.509h-.424c-.17 0-.17 0-.17-.085s0-.085.254-.085h2.884c1.781 0 2.12.933 2.12 1.442a2.2 2.2 0 0 1-1.1 1.7 2.355 2.355 0 0 1 1.866 2.12c0 1.187-.848 2.12-2.629 2.12h-2.883c-.17 0-.17 0-.17-.085s0-.085.17-.085h.339c.17 0 .254-.255.254-.509v-3.732Zm1.272.17v.085h.424c.339 0 .594 0 .763-.17a1.271 1.271 0 0 0 .424-1.018c0-.424-.424-1.442-1.272-1.442h-.424s-.085 0-.085.17v2.29Zm0 2.8c0 .594 0 .848.339.933a2.108 2.108 0 0 0 .679.085c.509 0 1.187-.254 1.187-1.357s-.17-1.187-.933-1.7a1.267 1.267 0 0 0-.848-.254h-.424v2.209Z"/><path data-name="Path 12896" d="M106.779 190.318c0 1.272 0 1.866.254 2.036.17.17.594.17 1.357.17s.933 0 1.187-.254a1.266 1.266 0 0 0 .255-.594c0-.085 0-.17.085-.17s.085.085.085.254a2.7 2.7 0 0 1-.17 1.1c0 .254-.085.254-.594.254h-4.41c-.169 0-.169 0-.169-.085s0-.085.169-.085h.339c.17 0 .254-.254.254-.509v-5.767c0-.339-.085-.424-.424-.509h-.339c-.17 0-.17 0-.17-.085s0-.085.255-.085h2.8c.424 0 .255 0 .255.085s0 .085-.17.085h-.424c-.254 0-.339.17-.339.509v3.732Z"/><path data-name="Path 12897" d="M113.733 188.622v-2.035c0-.339-.085-.424-.339-.509h-.339c-.085 0-.17 0-.17-.085s0 0 .254 0h2.8c0 .085 0 .085-.17.085h-.254c-.254 0-.339.17-.339.509v5.852c0 .255.085.424.424.424h.509c.17 0 .17 0 .17.085 0 0 0 .085-.17.085h-2.884c-.339 0-.17 0-.17-.085s0-.085.17-.085h.339c.17 0 .254-.17.254-.424v-3.817Z"/><path data-name="Path 12898" d="M119.756 192.948c-.17 0-.17-.085-.17-.339v-1.272c0-.17 0-.254.085-.254s.085.085.085.17a1.261 1.261 0 0 0 .085.509 1.6 1.6 0 0 0 1.611.933 1.311 1.311 0 0 0 1.357-1.187c0-.679-.085-.848-1.018-1.357l-.594-.339c-1.187-.679-1.527-1.357-1.527-2.205a2.464 2.464 0 0 1 2.544-1.951c1.442 0 1.187.085 1.442.17.085 0 .17 0 .17.085v1.187c0 .763 0 .339-.085.339s-.085 0-.085-.17a.631.631 0 0 0-.255-.594 1.342 1.342 0 0 0-1.1-.424c-.678 0-1.357.339-1.357 1.018s.17.763 1.018 1.272l.424.255c1.272.763 1.7 1.442 1.7 2.375a1.77 1.77 0 0 1-1.018 1.781 2.98 2.98 0 0 1-1.7.424 3.235 3.235 0 0 1-1.611-.254Z"/><path data-name="Path 12899" d="M133.41 188.961v-2.29c0-.339-.085-.424-.424-.509h-.424c-.17 0-.17 0-.17-.085s0-.085.255-.085h2.8c.339 0 .254 0 .254.085s0 .085-.17.085h-.254c-.254 0-.339.17-.339.509v5.767c0 .254.085.424.424.509h.509c.17 0 .17 0 .17.085 0 0 0 .085-.17.085h-2.883c-.339 0-.255 0-.255-.085s0-.085.17-.085h.339c.17 0 .254-.254.254-.509v-2.8h-3.732v2.8c0 .254.085.424.424.509h.509c.17 0 .17 0 .17.085 0 0 0 .085-.17.085h-2.884c-.424 0-.17 0-.17-.085s0-.085.17-.085h.339c.17 0 .254-.254.254-.509v-5.767c0-.339-.085-.424-.424-.509h-.424c-.17 0-.17 0-.17-.085s0-.085.254-.085h2.8c.424 0 .17 0 .17.085s0 .085-.17.085h-.254c-.254 0-.339.17-.339.509v2.29h3.562Z"/><path data-name="Path 12900" d="M140.11 188.623v-2.035c0-.339-.085-.424-.424-.509h-.424c-.17 0-.17 0-.17-.085s0-.085.254-.085h4.75c.085 0 0 0 0 .085v1.187s0 .17-.085.17 0 0 0-.085v-.339c0-.17-.17-.339-.679-.339h-1.527c-.17 0 0 0 0 .085v2.46h1.787c.254 0 .424 0 .509-.17a.3.3 0 0 1 .17-.085c.085 0 0 0 0 .085v1.357c0 .085 0 .254-.085.254h-.094v-.339c0-.17-.17-.339-.594-.339h-1.527c-.254 0 0 0 0 .085v2.205c0 .678.339.848 1.357.848s.679 0 .933-.085.339-.339.424-.678c0-.085 0-.17.085-.17s.085.085.085.254a2.507 2.507 0 0 1-.169 1.1c0 .254-.17.254-.509.254h-4.325c-.169 0-.17 0-.17-.085s0-.085.17-.085h.339c.17 0 .254-.254.254-.509v-3.732Z"/><path data-name="Path 12901" d="M148.422 188.623v-2.035c0-.339-.085-.424-.424-.509h-.424c-.17 0-.17 0-.17-.085s0-.085.254-.085h3.053c1.272 0 2.884 0 3.986 1.1a3.3 3.3 0 0 1 .933 2.46 3.819 3.819 0 0 1-1.1 2.714 4.749 4.749 0 0 1-3.308 1.1h-3.477c-.17 0-.17 0-.17-.085s0-.085.17-.085h.339c.17 0 .254-.255.254-.509v-3.732Zm1.357 1.018v1.951a1.458 1.458 0 0 0 .085.679c.085.17.509.424 1.272.424a3.41 3.41 0 0 0 2.205-.678 2.755 2.755 0 0 0 .848-2.375 3.435 3.435 0 0 0-.933-2.375 3.961 3.961 0 0 0-2.8-.933h-.594c-.085 0-.17 0-.17.17v3.053Z"/><path data-name="Path 12902" d="M166.575 187.859v-1.442c0-.255 0-.424-.17-.424a7.971 7.971 0 0 0-1.272.509h-.17c-.085 0-.085 0-.085-.085s0-.085.085-.17c0 0 2.205-1.442 2.629-1.781.085 0 .17-.17.255-.17s.169.085.169.254v7.633c0 .339.085.509.424.594h.763c.085 0 .085 0 .085.085s0 .085-.17.085h-3.817c-.763 0-.17 0-.17-.085s0-.085.085-.085h.933c.339 0 .424-.254.424-.594v-4.325Z"/><path data-name="Path 12903" d="M178.7 187.435c0 3.138-2.8 5.174-4.156 5.852h-.169c-.085 0-.085 0-.085-.085a.166.166 0 0 1 .17-.17 6.241 6.241 0 0 0 2.968-5.258c0-2.714-.848-2.884-1.7-2.884s-1.357.763-1.357 1.7c0 1.7 1.1 2.12 1.527 2.12s.594 0 .763-.17c.085 0 .17-.085.255-.085s.085 0 .085.085v.085a2.357 2.357 0 0 1-3.817-1.7 2.658 2.658 0 0 1 2.884-2.629 2.9 2.9 0 0 1 2.884 3.053Z"/><path data-name="Path 12904" d="M187.52 184.552c.254 0 .254 0 .254.085v.17a27.8 27.8 0 0 0-2.883 7.294v.424c0 .254-.933.679-1.442.679s-.17 0-.17-.17v-.424a45.916 45.916 0 0 1 3.308-7.039h-2.968a2.506 2.506 0 0 0-1.1.17 1.286 1.286 0 0 0-.339.679c0 .085 0 .17-.085.17s-.085 0-.085-.17c0-.424.17-1.781.17-1.866s0-.17.085-.17a9.055 9.055 0 0 0 1.527.085h3.647Z"/><path data-name="Path 12905" d="M193.037 187.859v-1.442c0-.255 0-.424-.17-.424a7.972 7.972 0 0 0-1.272.509h-.17c-.085 0-.085 0-.085-.085s0-.085.085-.17c0 0 2.205-1.442 2.629-1.781.085 0 .17-.17.254-.17s.169.085.169.254v7.633c0 .339.085.509.424.594h.763c.085 0 .085 0 .085.085s0 .085-.17.085h-3.817c-.763 0-.17 0-.17-.085s0-.085.085-.085h.933c.339 0 .424-.254.424-.594v-4.325Z"/></g></g><g data-name="Group 10432" fill="#00385c"><path data-name="Path 12906" d="M3.732 144.351a9.953 9.953 0 0 1-3.223-7.718 8.884 8.884 0 0 1 3.053-7.209c1.866-1.7 4.41-2.8 8.312-2.8s2.629.085 3.817.254c1.018.17 1.866.339 2.629.424a.388.388 0 0 1 .424.339 7.452 7.452 0 0 1-.17 1.442v2.8c0 .424 0 .594-.339.594s-.255-.17-.255-.594a3.349 3.349 0 0 0-1.018-2.375c-.848-.933-2.884-1.612-5.343-1.612a6.706 6.706 0 0 0-4.919 1.612c-1.951 1.781-2.375 4.241-2.375 6.785 0 6.191 4.75 9.329 8.227 9.329s3.732-.254 4.834-1.442a6.861 6.861 0 0 0 .933-1.7c0-.424.169-.509.339-.509s.255.17.255.424a24.807 24.807 0 0 1-.594 3.477c-.17.424-.254.594-.678.763a15.073 15.073 0 0 1-4.749.594c-3.562 0-6.615-.763-8.99-2.884Z"/><path data-name="Path 12907" d="M21.458 136.971c0-4.495 2.968-10.262 10.771-10.262s10.6 3.817 10.6 9.753a10.691 10.691 0 0 1-21.373.509Zm17.726.424c0-5.852-3.393-9.5-7.633-9.5s-6.446 1.7-6.446 8.227 2.968 9.753 8.057 9.753 6.106-.933 6.106-8.481Z"/><path data-name="Path 12908" d="M49.785 143.248c0 2.035.424 2.714.933 2.884a3.738 3.738 0 0 0 1.357.169c.424 0 .424 0 .424.17s-.255.255-.594.255h-6.022c-1.357 0-.594 0-.594-.255s.17-.17.424-.17a3.094 3.094 0 0 0 1.187-.169c.678-.17.763-.933.848-3.223l.254-15.521c0-.509 0-.933.339-.933s.509.339.933.848c.339.339 4.326 4.58 8.142 8.4 1.781 1.781 5.343 5.513 5.767 5.937h.17l-.254-11.789c0-1.611-.254-2.12-.848-2.375a3.968 3.968 0 0 0-1.357-.17c-.339 0-.424 0-.424-.254s.254-.254.679-.254h5.679c1.272 0 .594 0 .594.254s-.17.254-.509.254h-.763c-.763.17-.933.763-.933 2.205l-.254 16.538c0 .594-.085.848-.339.848a1.691 1.691 0 0 1-.933-.594l-7.718-7.718c-2.884-2.8-5.767-6.107-6.191-6.615l.254 11.026Z"/><path data-name="Path 12909" d="M88.714 145.109c0 .678 0 .763-.339.933a14.06 14.06 0 0 1-6.276 1.187c-6.446 0-12.128-3.053-12.128-10.262s2.205-7.124 4.58-8.566a12.645 12.645 0 0 1 7.039-1.7 29.709 29.709 0 0 1 4.665.424 14.826 14.826 0 0 0 2.036.254c.339 0 .339.17.339.339a37.688 37.688 0 0 0-.169 4.325c0 3.308 0 .509-.255.509s-.254-.17-.254-.339a3.309 3.309 0 0 0-.848-2.205 8.3 8.3 0 0 0-5.852-2.035c-2.968 0-3.392.085-5.174 1.611-1.442 1.187-2.375 3.223-2.375 6.446 0 5.6 3.562 9.838 9.075 9.838s1.612 0 2.205-.254c.424-.17.509-.509.509-.933v-5.513a1.336 1.336 0 0 0-1.1-1.527H83.37c-.339 0-.424 0-.424-.17s.17-.254.509-.254h6.87c.848 0 .509 0 .509.254s-.17.17-.339.17h-.679c-.678.17-.933.594-1.018 1.527v6.022Z"/><path data-name="Path 12910" d="M96.092 134.597v-5.513a1.336 1.336 0 0 0-1.1-1.527h-1.018c-.339 0-.424 0-.424-.254s.17-.255.594-.255h7.294a8.828 8.828 0 0 1 4.834 1.1 4.511 4.511 0 0 1 1.781 3.562c0 1.7-.848 3.732-3.477 5.852 2.29 2.968 4.156 5.258 5.682 6.87a5.089 5.089 0 0 0 2.968 1.781h.763c.254 0 .339 0 .339.17s-.17.254-.509.254h-2.459a5.64 5.64 0 0 1-2.8-.509c-1.1-.594-2.12-1.866-3.562-3.817-1.018-1.442-2.29-3.223-2.629-3.647-.169-.17-.254-.17-.509-.17h-2.29c-.17 0-.17 0-.17.17v.339a48.048 48.048 0 0 0 .17 5.6c0 .763.254 1.357 1.018 1.442.424 0 .933.085 1.272.085s.339 0 .339.17-.17.254-.509.254h-7.042c-1.1 0-.509 0-.509-.254s.085-.17.424-.17a3.18 3.18 0 0 0 .933-.085c.509-.085.679-.679.763-1.442a48.03 48.03 0 0 0 .17-5.6v-4.58Zm3.053 2.12c0 .254 0 .424.254.509a7.231 7.231 0 0 0 1.951.254 2.764 2.764 0 0 0 1.866-.424 4.681 4.681 0 0 0 1.527-3.9c0-3.732-2.459-4.834-3.986-4.834s-1.1 0-1.357.085c-.17 0-.254.17-.254.339Z"/><path data-name="Path 12911" d="M115.853 134.594v-5.51a1.336 1.336 0 0 0-1.1-1.527h-1.018c-.339 0-.424 0-.424-.254s.17-.255.594-.255h10.262a2.946 2.946 0 0 0 1.1-.17c.17 0 .255-.085.424-.085s.169.085.169.254a7.7 7.7 0 0 0-.169 1.7 5.771 5.771 0 0 1-.17 1.7c0 .17 0 .254-.255.254s-.254-.17-.254-.339a2.168 2.168 0 0 0-.17-.933c-.17-.509-.424-.763-1.781-.933-.424 0-3.223-.085-3.732-.085s-.17 0-.17.254v6.615c0 .169 0 .254.17.254h4.156a1.755 1.755 0 0 0 1.272-.424c.17-.17.254-.339.424-.339s.17 0 .17.17-.085.594-.17 1.951c0 .509-.085 1.527-.085 1.781s0 .509-.254.509-.254-.085-.254-.254a3.8 3.8 0 0 0-.085-.933 1.44 1.44 0 0 0-1.442-1.018h-3.732c-.679 0-.17.085-.17.254v6.106c0 1.781.509 2.205 3.138 2.205s1.781 0 2.46-.339a2.217 2.217 0 0 0 1.187-1.951c0-.254.085-.424.254-.424s.17.17.17.509a15.784 15.784 0 0 1-.339 2.884c-.17.678-.424.678-1.442.678h-10.515c-.509 0-.509 0-.509-.254s.085-.17.424-.17a3.177 3.177 0 0 0 .933-.085c.509-.085.678-.678.763-1.442a48.081 48.081 0 0 0 .169-5.6v-4.754Z"/><path data-name="Path 12912" d="M130.95 146.555c-.424-.17-.509-.339-.509-.848a27.009 27.009 0 0 1 .17-3.393c0-.424.085-.678.339-.678s.254.254.254.424a4.661 4.661 0 0 0 .254 1.357 3.588 3.588 0 0 0 3.732 2.629c2.375 0 3.477-1.611 3.477-2.968s-.424-2.46-2.544-4.156l-1.187-.933c-2.884-2.29-3.9-4.071-3.9-6.191s2.375-4.919 6.022-4.919 2.8.254 3.477.424a.311.311 0 0 1 .339.339c0 .339-.085 1.1-.085 3.138s0 .763-.254.763-.255-.17-.255-.509a3.144 3.144 0 0 0-.679-1.7 3.408 3.408 0 0 0-2.884-1.272 2.9 2.9 0 0 0-3.138 2.714c0 1.611.594 2.12 2.8 3.732l.763.509c3.138 2.375 4.325 4.156 4.325 6.7s-.594 3.308-2.46 4.58a7.477 7.477 0 0 1-4.156 1.1 9.275 9.275 0 0 1-3.817-.679Z"/><path data-name="Path 12913" d="M146.216 146.555c-.424-.17-.509-.339-.509-.848a27 27 0 0 1 .17-3.393c0-.424.085-.678.339-.678s.255.254.255.424a4.661 4.661 0 0 0 .254 1.357 3.588 3.588 0 0 0 3.732 2.629c2.375 0 3.477-1.611 3.477-2.968s-.424-2.46-2.544-4.156l-1.187-.933c-2.884-2.29-3.9-4.071-3.9-6.191s2.375-4.919 6.022-4.919 2.8.254 3.477.424a.311.311 0 0 1 .339.339c0 .339-.085 1.1-.085 3.138s0 .763-.254.763-.254-.17-.254-.509a3.145 3.145 0 0 0-.679-1.7 3.408 3.408 0 0 0-2.884-1.272 2.9 2.9 0 0 0-3.138 2.714c0 1.611.594 2.12 2.8 3.732l.763.509c3.138 2.375 4.325 4.156 4.325 6.7s-.594 3.308-2.46 4.58a7.477 7.477 0 0 1-4.156 1.1 9.275 9.275 0 0 1-3.817-.679Z"/><path data-name="Path 12914" d="M162.924 134.597v-5.513c0-.848-.339-1.357-.933-1.442-.254 0-.594-.085-.933-.085s-.424 0-.424-.254.17-.17.594-.17h6.614c1.018 0 .509 0 .509.17s-.17.254-.424.254h-.763c-.679.17-.933.594-.933 1.527v10.093c0 2.544 0 4.58.085 5.767 0 .679.254 1.187 1.018 1.272.339 0 .933.085 1.357.085s.424 0 .424.17-.169.254-.509.254h-7.379c-1.018 0-.509 0-.509-.254s.085-.17.424-.17a3.178 3.178 0 0 0 .933-.085c.509-.085.679-.509.763-1.272a48.9 48.9 0 0 0 .17-5.682v-4.58Z"/><path data-name="Path 12915" d="M171.575 136.971c0-4.495 2.968-10.262 10.856-10.262s10.6 3.817 10.6 9.753a10.691 10.691 0 0 1-21.373.509Zm17.726.424c0-5.852-3.392-9.5-7.633-9.5s-6.446 1.7-6.446 8.227 2.968 9.753 8.057 9.753 6.106-.933 6.106-8.481Z"/><path data-name="Path 12916" d="M199.987 143.248c0 2.035.424 2.714.933 2.884a3.739 3.739 0 0 0 1.357.169c.424 0 .424 0 .424.17s-.254.255-.594.255h-6.022c-1.357 0-.594 0-.594-.255s.17-.17.424-.17a3.1 3.1 0 0 0 1.187-.169c.678-.17.763-.933.848-3.223l.254-15.521c0-.509 0-.933.339-.933s.509.339.933.848c.339.339 4.325 4.58 8.142 8.4 1.781 1.781 5.343 5.513 5.767 5.937h.17l-.254-11.789c0-1.611-.255-2.12-.848-2.375a3.968 3.968 0 0 0-1.357-.17c-.339 0-.424 0-.424-.254s.255-.254.679-.254h5.679c1.272 0 .594 0 .594.254s-.17.254-.509.254h-.763c-.763.17-.933.763-.933 2.205l-.254 16.538c0 .594-.085.848-.339.848a1.314 1.314 0 0 1-.848-.594l-7.718-7.718c-2.884-2.8-5.767-6.107-6.191-6.615l.254 11.026Z"/><path data-name="Path 12917" d="M224.328 140.025c-.169 0-.169 0-.254.17l-1.442 3.732a5.644 5.644 0 0 0-.424 1.611c0 .509.254.848 1.018.848h.424c.339 0 .424 0 .424.17s-.17.254-.424.254h-5.852c-1.357 0-.509 0-.509-.254s.085-.17.339-.17h.848c1.187-.17 1.7-1.018 2.205-2.375l6.531-16.454c.339-.763.509-1.018.763-1.018s.424.254.679.848c.594 1.442 4.834 12.128 6.531 16.114 1.018 2.375 1.781 2.714 2.29 2.884.424 0 .763.085 1.1.085s.339 0 .339.17-.254.254-1.188.254h-4.919c-.509 0-.763 0-.763-.17s.085-.17.339-.254c.17 0 .339-.254.255-.594l-2.12-5.513c0-.17-.17-.17-.254-.17h-5.852Zm5.343-1.357c.17 0 .17 0 .17-.17l-2.375-6.446c0-.085 0-.254-.17-.254s-.17.17-.17.254l-2.375 6.446c0 .085 0 .17.085.17Z"/><path data-name="Path 12918" d="M244.937 139.262c0 3.392 0 5.174.509 5.6.424.424 1.1.594 3.138.594s2.375 0 3.053-.763a3.445 3.445 0 0 0 .679-1.611c0-.254 0-.424.254-.424s.17.17.17.424a15.472 15.472 0 0 1-.424 2.968c-.17.594-.254.678-1.612.678h-10.94c-.509 0-.509 0-.509-.254s.085-.17.424-.17a3.183 3.183 0 0 0 .933-.085c.509-.085.678-.679.763-1.442a48.064 48.064 0 0 0 .17-5.6v-10.093a1.336 1.336 0 0 0-1.1-1.527h-.848c-.339 0-.424 0-.424-.254s.17-.255.594-.255h7.124c1.018 0 .509 0 .509.255s-.17.254-.509.254h-1.021c-.679.17-.933.594-.933 1.527v10.177Z"/></g><g data-name="Group 10433" fill="#00385c"><path data-name="Path 12919" d="M3.562 158.684v-6.361c0-1.018-.339-1.527-1.272-1.7-.254 0-.763-.085-1.187-.085s-.509 0-.509-.254.17-.254.679-.254c1.611 0 3.477.085 4.071.085 1.442 0 2.629-.085 3.647-.085 5.428 0 6.446 2.968 6.446 4.5 0 2.459-1.442 3.986-3.053 5.258 2.46.848 5.513 2.968 5.513 6.53s-2.546 6.615-8.058 6.615-1.272 0-2.12-.085c-.933 0-1.781-.085-2.29-.085H1.612c-.678 0-.594-.085-.594-.339s.085-.254.509-.254a4.147 4.147 0 0 0 1.1-.085c.594-.085.763-.763.848-1.7a64.056 64.056 0 0 0 .17-6.446v-5.343Zm3.562.509c0 .254.085.339.254.339.254 0 .763.085 1.442.085a2.869 2.869 0 0 0 2.205-.594 3.944 3.944 0 0 0 1.269-3.223c0-1.527-1.187-4.665-3.817-4.665H7.464q-.254 0-.254.509v7.463Zm3.986 2.46a4.759 4.759 0 0 0-2.544-.763H7.294c-.424 0-.17 0-.17.17v7.124c0 1.951.085 2.544 1.018 2.884a5.39 5.39 0 0 0 2.205.339 3.546 3.546 0 0 0 3.647-3.9c0-3.138-.594-4.41-2.968-6.022Z"/><path data-name="Path 12920" d="M28.073 164.027c0 3.9 0 5.937.594 6.531.509.424 1.272.678 3.647.678s2.8 0 3.562-.848a3.688 3.688 0 0 0 .763-1.781c0-.254.085-.424.339-.424s.254.17.254.509a21.168 21.168 0 0 1-.424 3.477c-.17.679-.339.848-1.866.848s-3.732 0-5.089-.085c-1.357 0-2.46-.085-3.647-.085h-3.817c-.678 0-.594-.085-.594-.339s.085-.254.509-.254a4.14 4.14 0 0 0 1.1-.085c.594-.085.763-.763.848-1.7a64.053 64.053 0 0 0 .17-6.446v-11.7c0-1.018-.339-1.527-1.272-1.7-.254 0-.594-.085-1.018-.085s-.509 0-.509-.254.17-.254.679-.254c1.442 0 3.308.085 4.156.085s2.968-.085 4.071-.085.594 0 .594.254-.17.254-.509.254a5.59 5.59 0 0 0-1.187.085c-.848.17-1.018.678-1.1 1.7v11.7Z"/><path data-name="Path 12921" d="M44.357 164.875c-.17 0-.17 0-.254.255l-1.611 4.325a4.7 4.7 0 0 0-.424 1.866c0 .509.254.933 1.187.933h.424c.339 0 .424 0 .424.254s-.17.339-.509.339c-.933 0-2.29-.085-3.223-.085s-1.951.085-3.562.085-.594 0-.594-.339.085-.254.339-.254h.933c1.357-.17 1.951-1.187 2.544-2.714l7.548-19c.339-.848.509-1.187.848-1.187s.424.254.763.933c.763 1.7 5.6 13.994 7.464 18.574 1.187 2.714 2.035 3.138 2.629 3.308a6.849 6.849 0 0 0 1.272.085c.339 0 .424 0 .424.254s-.254.339-1.357.339H53.94c-.509 0-.933 0-.933-.254s.085-.255.424-.255a.472.472 0 0 0 .255-.678l-2.46-6.446c0-.17-.17-.17-.339-.17h-6.7Zm6.191-1.527c.17 0 .17-.085.17-.17l-2.714-7.464c0-.085 0-.254-.17-.254s-.17.17-.17.254l-2.8 7.464c0 .085 0 .17.085.17Z"/><path data-name="Path 12922" d="M64.797 169.879a11.439 11.439 0 0 1-3.732-8.905 10.214 10.214 0 0 1 3.562-8.312c2.205-1.951 5-3.223 9.5-3.223s2.968.085 4.41.339c1.187.17 2.12.424 3.053.509.339 0 .424.17.424.339s-.085.594-.17 1.7c0 1.018 0 2.629-.085 3.223 0 .424-.085.678-.339.678s-.339-.254-.339-.678a4.314 4.314 0 0 0-1.187-2.8c-1.018-1.018-3.392-1.866-6.106-1.866a7.882 7.882 0 0 0-5.682 1.866c-2.205 2.035-2.8 4.919-2.8 7.8 0 7.209 5.428 10.771 9.5 10.771s4.325-.339 5.513-1.7a4.605 4.605 0 0 0 1.018-2.036c.085-.509.17-.594.424-.594s.254.17.254.424a24.308 24.308 0 0 1-.678 3.986c-.17.509-.254.679-.763.848a16.6 16.6 0 0 1-5.428.678c-4.156 0-7.633-.933-10.347-3.308Z"/><path data-name="Path 12923" d="M92.192 160.041h.17c1.018-1.1 5.428-5.6 6.276-6.615s1.527-1.781 1.527-2.29-.085-.509-.424-.594c-.254 0-.424-.085-.424-.339s.17-.254.509-.254c.594 0 2.29.085 3.138.085s2.629-.085 3.562-.085.509 0 .509.254-.17.254-.424.254a5.769 5.769 0 0 0-1.781.339 9.126 9.126 0 0 0-3.223 2.29c-.933.933-5.513 5.428-6.531 6.531 1.1 1.442 7.039 7.8 8.227 8.905a14.053 14.053 0 0 0 4.325 3.223 5.762 5.762 0 0 0 1.866.424c.339 0 .424 0 .424.254s-.169.339-.763.339h-4.75a6.188 6.188 0 0 1-3.732-1.951c-1.357-1.187-7.294-8.142-7.887-8.99l-.339-.424h-.17v2.714c0 2.8 0 5.174.085 6.446 0 .848.339 1.527 1.1 1.611.424 0 1.1.085 1.442.085s.424.085.424.254-.255.339-.594.339c-1.7 0-3.562-.085-4.325-.085s-2.629.085-3.817.085-.594-.085-.594-.339.085-.254.509-.254a4.146 4.146 0 0 0 1.1-.085c.594-.085.763-.763.848-1.7a64.078 64.078 0 0 0 .17-6.446v-11.7c0-1.018-.339-1.527-1.272-1.7-.254 0-.763-.085-1.187-.085s-.509 0-.509-.254.17-.254.679-.254c1.611 0 3.477.085 4.241.085s2.629-.085 3.647-.085.594 0 .594.254-.17.254-.424.254a3.183 3.183 0 0 0-.848.085c-.848.17-1.018.679-1.1 1.7v7.718Z"/><path data-name="Path 12924" d="M121.197 169.879a11.439 11.439 0 0 1-3.732-8.905 10.214 10.214 0 0 1 3.562-8.312c2.205-1.951 5-3.223 9.5-3.223s2.968.085 4.41.339c1.187.17 2.12.424 3.053.509.339 0 .424.17.424.339s-.085.594-.17 1.7c0 1.018 0 2.629-.085 3.223 0 .424-.085.678-.339.678s-.339-.254-.339-.678a4.313 4.313 0 0 0-1.187-2.8c-1.018-1.018-3.393-1.866-6.106-1.866a7.882 7.882 0 0 0-5.682 1.866c-2.205 2.035-2.8 4.919-2.8 7.8 0 7.209 5.428 10.771 9.5 10.771s4.325-.339 5.513-1.7a4.6 4.6 0 0 0 1.018-2.036c.085-.509.17-.594.424-.594s.254.17.254.424a24.3 24.3 0 0 1-.679 3.986c-.17.509-.254.679-.763.848a16.6 16.6 0 0 1-5.428.678c-4.156 0-7.633-.933-10.347-3.308Z"/><path data-name="Path 12925" d="M147.064 164.875c-.17 0-.17 0-.255.255l-1.611 4.325a4.7 4.7 0 0 0-.424 1.866c0 .509.254.933 1.187.933h.424c.339 0 .424 0 .424.254s-.17.339-.509.339c-.933 0-2.29-.085-3.223-.085s-2.035.085-3.562.085-.594 0-.594-.339.085-.254.339-.254h.933c1.357-.17 1.951-1.187 2.544-2.714l7.548-19c.339-.848.509-1.187.848-1.187s.424.254.763.933c.763 1.7 5.6 13.994 7.463 18.574 1.187 2.714 2.036 3.138 2.629 3.308a6.849 6.849 0 0 0 1.272.085c.339 0 .424 0 .424.254s-.254.339-1.357.339h-5.682c-.509 0-.933 0-.933-.254s.085-.255.424-.255c.254 0 .424-.339.254-.678l-2.375-6.446c0-.17-.17-.17-.339-.17h-6.7Zm6.106-1.527c.17 0 .17-.085.17-.17l-2.714-7.464c0-.085 0-.254-.17-.254s-.17.17-.17.254l-2.8 7.464c0 .085 0 .17.085.17h5.6Z"/><path data-name="Path 12926" d="M165.553 158.684v-6.361c0-1.018-.339-1.527-1.272-1.7-.254 0-.763-.085-1.187-.085s-.509 0-.509-.254.254-.254.678-.254c1.611 0 3.477.085 4.41.085s2.629-.085 3.732-.085.679 0 .679.254-.17.254-.509.254a2.886 2.886 0 0 0-.848.085c-.848.17-1.018.678-1.1 1.7v10.6c0 4.41.848 6.191 2.375 7.464a5.705 5.705 0 0 0 3.817 1.272 6.312 6.312 0 0 0 4.156-1.611c1.7-1.7 1.781-4.41 1.781-7.463v-10.092c0-1.018-.339-1.527-1.272-1.7-.254 0-.763-.085-1.1-.085s-.509 0-.509-.254.254-.254.594-.254c1.527 0 3.477.085 3.477.085.339 0 2.29-.085 3.477-.085s.594 0 .594.254-.17.254-.509.254a2.882 2.882 0 0 0-.848.085c-.848.17-1.018.678-1.1 1.7v9.584c0 3.392-.339 6.955-2.884 9.075a8.913 8.913 0 0 1-6.276 2.205c-1.951 0-4.495-.085-6.7-2.12-1.527-1.357-2.714-3.647-2.714-7.972v-4.41Z"/><path data-name="Path 12927" d="M193.033 169.879a11.439 11.439 0 0 1-3.732-8.905 10.214 10.214 0 0 1 3.562-8.312c2.205-1.951 5-3.223 9.584-3.223s2.968.085 4.41.339c1.187.17 2.12.424 3.053.509.339 0 .424.17.424.339s-.085.594-.17 1.7c0 1.018 0 2.629-.085 3.223 0 .424-.085.678-.339.678s-.339-.254-.339-.678a4.313 4.313 0 0 0-1.187-2.8c-1.018-1.018-3.308-1.866-6.106-1.866a7.743 7.743 0 0 0-5.682 1.866c-2.205 2.035-2.8 4.919-2.8 7.8 0 7.209 5.428 10.771 9.5 10.771s4.325-.339 5.513-1.7a4.6 4.6 0 0 0 1.018-2.036c.085-.509.17-.594.424-.594s.254.17.254.424a24.3 24.3 0 0 1-.679 3.986c-.169.509-.254.679-.763.848a16.6 16.6 0 0 1-5.428.678c-4.156 0-7.633-.933-10.347-3.308Z"/><path data-name="Path 12928" d="M215.424 158.684v-6.361c0-1.018-.339-1.527-1.272-1.7-.254 0-.763-.085-1.187-.085s-.509 0-.509-.254.17-.254.679-.254c1.611 0 3.477.085 4.41.085s2.629-.085 3.732-.085.679 0 .679.254-.17.254-.509.254a2.886 2.886 0 0 0-.848.085c-.848.17-1.018.678-1.1 1.7v10.6c0 4.41.848 6.191 2.375 7.464a5.635 5.635 0 0 0 3.732 1.272 6.47 6.47 0 0 0 4.156-1.611c1.7-1.7 1.781-4.41 1.781-7.463v-10.092c0-1.018-.339-1.527-1.272-1.7-.254 0-.763-.085-1.1-.085s-.509 0-.509-.254.17-.254.594-.254c1.527 0 3.477.085 3.477.085.339 0 2.29-.085 3.477-.085s.594 0 .594.254-.17.254-.509.254a2.883 2.883 0 0 0-.848.085c-.848.17-1.018.678-1.1 1.7v9.584c0 3.392-.339 6.955-2.884 9.075a8.913 8.913 0 0 1-6.276 2.205c-1.951 0-4.495-.085-6.7-2.12-1.527-1.357-2.714-3.647-2.714-7.972v-4.41Z"/><path data-name="Path 12929" d="M240.782 172.424c-.509-.17-.594-.339-.594-1.018a37.275 37.275 0 0 1 .17-3.986c0-.424.085-.763.339-.763s.339.254.339.509a5.226 5.226 0 0 0 .254 1.527 4.219 4.219 0 0 0 4.326 3.053c2.714 0 4.071-1.866 4.071-3.477s-.424-2.883-2.968-4.834l-1.357-1.1c-3.307-2.629-4.495-4.75-4.495-7.124s2.8-5.682 6.954-5.682 3.223.339 3.986.509a.388.388 0 0 1 .424.339c0 .424-.085 1.272-.085 3.647s-.085.933-.339.933-.339-.17-.339-.509a4.023 4.023 0 0 0-.763-2.036 3.782 3.782 0 0 0-3.308-1.442 3.3 3.3 0 0 0-3.562 3.138c0 1.866.679 2.46 3.223 4.325l.848.594c3.647 2.714 4.919 4.834 4.919 7.718s-.679 3.817-2.8 5.258a9.185 9.185 0 0 1-4.834 1.272 10.492 10.492 0 0 1-4.41-.763Z"/></g><g data-name="Group 10434"><path data-name="Path 12930" d="M124.165 40.541c1.1.17 1.187.848 1.272 2.036 0 1.187-.17 6.276-.17 7.039s-.763.933-1.7.678-1.1-.678-1.018-1.272v-7.8a1.789 1.789 0 0 1 1.616-.681Z" fill="none"/><path data-name="Path 12931" d="M127.642 41.897a1.457 1.457 0 0 1 1.442 1.272c0 .763.254 5.852.17 6.446a1.239 1.239 0 0 1-1.442 1.187c-.848-.17-.763-.424-.848-1.187l-.17-6.785s.255-1.018.848-1.018Z" fill="none"/><path data-name="Path 12932" d="M84.222 118.313c1.611-.763 3.308 0 3.223.679v.678h-4.923a3.469 3.469 0 0 1 1.7-1.357Z" fill="none"/><path data-name="Path 12933" d="M119.585 63.185c1.866 0 1.7.933 1.866 2.629s-.17 10.008-.678 11.45-1.866.763-1.611 2.12c.254 1.272.763 4.156-1.1 5.767-1.866 1.7-2.884 1.781-3.647 1.1-.763-.763-1.951-2.12-.594-2.205 1.357 0 1.187.509 2.375 0 1.187-.594 1.781-2.968 1.1-5.089s-1.187-2.46-2.12-2.205a3.194 3.194 0 0 1-1.7 0s1.187-9.838 1.866-11.365c.679-1.611 2.375-2.205 4.326-2.12Z" fill="none"/><path data-name="Path 12934" d="M71.667 118.907c1.1-.17.763-1.442 1.272-1.866.509-.509 1.527.424 2.12.339.594 0-.17-1.187.339-1.866.509-.594.848.594 2.29.509 1.527 0 0-1.357.509-2.12s1.866.424 3.053.254.254-1.866 1.272-2.035 1.442.933 2.035.848c.594-.17-.339-1.442 1.018-1.866 1.357-.509 1.951.509 2.714.254.848-.17 0-1.357.763-1.527s1.866.763 2.46.763.509-.848 1.272-1.527c.848-.678 1.951 1.1 2.544 1.187.594 0 0-1.527 1.1-1.951 1.187-.424.678.848 2.629.763 1.951-.17.17-1.272 1.611-1.7s1.7.763 2.714.678c1.018 0 .339-.763 1.1-1.187s1.442.763 2.12.848c.679 0 .594-1.357 1.7-1.7s.763.933 2.205 1.272 1.187-.678 2.46-1.272 1.187.763 2.629.509c1.442-.17.763-.848 1.7-1.1s2.375 1.018 2.884 1.018.848-.933 1.7-1.272 2.29 1.187 2.968 1.272c.594 0 1.7-1.1 3.308-1.272s2.544 1.781 3.732 1.866c1.187 0 1.442-.848 1.951-.848s1.866 1.272 2.968 1.357c1.1 0 1.527-1.018 2.29-1.187s1.272 1.611 2.629 1.781 1.272-.509 2.035-.763c.848-.254 2.544 1.1 3.053 1.442s.848-.424 2.714-.763 1.781 1.357 2.46 1.7 1.357-.594 2.29-.848c.933-.17 1.951 1.527 2.714 1.866.848.339 1.018-.339 2.544-.424 1.527 0 .509 1.018.509 1.018h3.817c1.781 0 1.611.679 3.138.933s1.951.509 2.629 2.205c.678 1.611 2.629.509 3.986 1.1 1.357.509.933.424 1.951 1.866.933 1.527 2.629 0 4.834 1.187a2.306 2.306 0 0 1 1.018 1.018h-4.665c-2.29-.933-5.343-2.12-8.481-3.138-6.7-2.205-34.688-6.87-48-6.87s-24.426 2.544-35.112 6.022a62.9 62.9 0 0 0-9.923 4.071h-6.03l.085-.085c.509-.509 1.272-.509 2.29-.678Z" fill="none"/><path data-name="Path 12935" d="M120.433 35.96a40 40 0 0 0-6.361.848c-2.46.763-3.393 2.29-4.58 1.781-1.272-.509-.509-1.951.255-2.29a19.708 19.708 0 0 1 5.428-2.205c2.629-.509 4.919-.678 5.852-.254s1.272 1.781-.594 2.035Z" fill="none"/><path data-name="Path 12936" d="M113.309 40.879a1.715 1.715 0 0 1 1.781 1.7c.17 1.1 0 6.361 0 7.209a1.855 1.855 0 0 1-1.866 1.7c-.933 0-1.272-.763-1.272-2.205v-7.304a1.873 1.873 0 0 1 1.442-1.1Z" fill="none"/><path data-name="Path 12937" d="M118.737 59.029a1.678 1.678 0 0 1 1.781 1.781c-.763.509-3.393 1.018-5.343 1.781s-.763-.763-2.205-1.187c-1.357-.424-2.8 1.527-4.665 1.866s-1.442 0-1.272-1.272 2.46-1.7 5.089-2.29a24.279 24.279 0 0 1 6.615-.679Z" fill="none"/><path data-name="Path 12938" d="M116.532 31.72c-2.035.17-2.12.848-3.223 1.1s-1.018 0-1.357-.763c-.339-.679.763-1.1.763-1.1s1.272-.424 2.883-.848 2.884-.763 3.986-.255 1.357 1.272.763 1.866c-.679.678-1.611 0-3.647 0Z" fill="none"/><path data-name="Path 12939" d="M125.776 111.446c2.968-.17 4.919 1.187 5.089 1.951v6.276h-2.375v-3.562c-.085-1.7-2.205-1.781-2.205-1.781-1.018 0-2.884 1.018-2.884 1.951v3.392h-2.035v-5.427c.17-2.29 1.442-2.629 4.495-2.8Z" fill="none"/><path data-name="Path 12940" d="M137.989 112.291c2.12 0 4.326 1.187 4.5 2.205v5.089h-2.205c0-1.187.085-2.29 0-2.8a2.644 2.644 0 0 0-2.29-2.714 2.424 2.424 0 0 0-2.968 2.12v3.392h-2.38c0-2.544 0-5 .085-5.852.17-1.951 3.053-1.527 5.174-1.527Z" fill="none"/><path data-name="Path 12941" d="M152.407 115.684a20.88 20.88 0 0 1 .17 4.071h-1.951v-2.205c-.085-1.357-2.29-1.7-2.29-1.7a1.807 1.807 0 0 0-1.526 1.272c0 .254 0 1.272-.085 2.544h-2.46c0-2.375.17-4.58.763-5.428 1.357-2.286 6.955.428 7.379 1.446Z" fill="none"/><path data-name="Path 12942" d="M155.461 115.514c1.611-.848 5.682 1.272 5.852 2.12 0 .17.085 1.018.085 2.036h-1.781a2.074 2.074 0 0 0-1.781-1.866c-1.1-.339-1.612.424-1.612 1.272v.594h-2.374v-.255c0-2.29-.17-3.138 1.442-3.986Z" fill="none"/><path data-name="Path 12943" d="M92.954 115.344c2.375-.678 3.732 0 3.732 1.272v3.053h-2.375c0-1.187-.17-1.866-1.611-1.781a1.909 1.909 0 0 0-1.7 1.357v.424h-2.032v-.594c0-1.866 1.612-3.138 3.986-3.817Z" fill="none"/><path data-name="Path 12944" d="M169.54 119.672h-6.361a6.434 6.434 0 0 1 .085-1.357c.339-2.207 4.915.257 6.276 1.357Z" fill="none"/><path data-name="Path 12945" d="M98.636 118.058c.17-1.612-.17-2.205.848-3.393.933-1.187 4.156-1.866 5.937-1.866s1.781.763 1.951 1.866c0 .424.085 2.544.17 5.089h-1.951a8.319 8.319 0 0 0-.085-1.7c-.17-1.272-2.29-1.527-2.29-1.527-1.187.085-2.12.763-2.12 1.7v1.442h-2.46v-1.7Z" fill="none"/><path data-name="Path 12946" d="M119.67 40.541a46.3 46.3 0 0 1 .424 8.312c-.254 1.1-2.46 1.527-2.544.17 0-1.357-.254-7.8-.254-8.481-.001-.001 2.034-1.274 2.374-.001Z" fill="none"/><path data-name="Path 12947" d="M114.408 111.952c2.8-.254 4.58.848 4.749 1.866.085.424.085 3.053.17 5.767h-2.036v-1.951c0-1.272-.424-2.544-2.205-2.46s-2.884.679-2.884 1.781 0 1.442-.085 2.629h-2.709a52.821 52.821 0 0 1 .254-5.343c.254-1.527 1.951-2.12 4.834-2.375Z" fill="none"/><path data-name="Path 12948" d="M143.841 95.244c-.424 0-4.665 0-5.513-.594-.848-.509-.339-1.951 1.1-1.951s4.495.339 4.834 1.187c.254.763.594 1.272-.339 1.357Z" fill="none"/><path data-name="Path 12949" d="M157.157 86.678c-.763-.763-5.428-10.347-5.428-10.347s.933-1.018 1.781-.339c.763.678 5.852 9.838 5.513 10.856-.255 1.018-1.187.678-1.866 0Z" fill="none"/><path data-name="Path 12950" d="M159.616 95.838c-.933-.339-.509-1.272.848-1.272a16.054 16.054 0 0 1 5.937 2.46.846.846 0 0 1-.17.933s-5.682-1.781-6.615-2.205Z" fill="none"/><path data-name="Path 12951" d="M149.778 88.798c0-.509-1.611-6.022-2.12-7.718s0-2.29 1.1-1.781c1.1.594 2.884 6.785 2.884 7.972 0 1.272-1.866 1.951-1.866 1.442Z" fill="none"/><path data-name="Path 12952" d="M170.218 107.542c-1.781.424-3.477.254-3.986-.763a2.122 2.122 0 0 1 1.951-1.187c1.357.17 3.817 1.527 2.036 1.951Z" fill="none"/><path data-name="Path 12953" d="M120.009 57.163h-4.5c-1.781 0-3.817 1.018-5 1.187s-2.8-1.781-.763-2.714a24.254 24.254 0 0 1 7.975-1.611c2.46 0 5 .848 4.495 2.036-.424 1.187-1.187 1.1-2.375 1.1Z" fill="none"/><path data-name="Path 12954" d="M143.332 100.757c-1.018 0-4.834-1.018-5.682-2.29s4.919-.254 7.039.254c2.121.594-1.357 2.036-1.357 2.036Z" fill="none"/><path data-name="Path 12955" d="M149.099 99.23c1.866 0 4.834.339 4.665 1.442s-.509 1.1-1.187 1.018c-.678 0-4.24-.254-4.24-.254s-1.104-2.206.762-2.206Z" fill="none"/><path data-name="Path 12956" d="M133.834 94.478c-.339 0-4.241-.254-4.241-.254s-2.375-1.527 0-1.866c2.46-.339 5.767.254 5.937 1.1.17.763 0 1.018-1.781 1.1Z" fill="none"/><path data-name="Path 12957" d="M162.5 99.23c.933.933 1.1 1.866 0 1.866 0 0-3.138-.255-2.968-1.187a1.989 1.989 0 0 1 2.968-.763Z" fill="none"/><path data-name="Path 12958" d="M138.498 88.713s-1.187-6.785.17-6.276 2.714 4.241 1.7 5.6c-1.022 1.27-1.87.676-1.87.676Z" fill="none"/><path data-name="Path 12959" d="M135.106 116.363a2.517 2.517 0 0 1 2.969-2.12 2.589 2.589 0 0 1 2.29 2.714v2.8h-5.259Z" fill="#e51e25"/><path data-name="Path 12960" d="M115.09 115.26c1.781-.085 2.205 1.187 2.205 2.46v1.951h-5.173c0-1.187.085-2.205.085-2.629 0-1.104 1.102-1.698 2.883-1.782Z" fill="#e51e25"/><path data-name="Path 12961" d="M157.92 117.804a2.259 2.259 0 0 1 1.781 1.866h-3.308v-.594c0-.933.509-1.611 1.611-1.272Z" fill="#e51e25"/><path data-name="Path 12962" d="M126.285 114.327s2.12.085 2.205 1.781v3.562h-5.173v-3.393c0-1.018 1.866-1.951 2.884-1.951Z" fill="#e51e25"/><path data-name="Path 12963" d="M92.788 117.89c1.357-.085 1.611.594 1.611 1.781h-3.311v-.424a1.909 1.909 0 0 1 1.7-1.357Z" fill="#e51e25"/><path data-name="Path 12964" d="M148.251 115.853s2.205.254 2.29 1.7v2.2h-3.9a16.612 16.612 0 0 1 .085-2.544 1.713 1.713 0 0 1 1.527-1.272Z" fill="#e51e25"/><path data-name="Path 12965" d="M103.216 116.532s2.12.17 2.29 1.527a16.245 16.245 0 0 0 .085 1.7h-4.5v-1.442c0-.933.933-1.611 2.12-1.7Z" fill="#e51e25"/><path data-name="Path 12966" d="M180.395 118.737c-2.205-1.187-3.817.254-4.834-1.187-.933-1.527-.509-1.357-1.951-1.866-1.357-.509-3.308.509-3.986-1.1a2.865 2.865 0 0 0-2.629-2.205c-1.527-.254-1.357-.933-3.138-.933h-3.817s1.018-1.1-.509-1.018c-1.527 0-1.7.763-2.544.424s-1.781-2.12-2.714-1.866c-.933.17-1.612 1.187-2.29.848s-.594-2.035-2.46-1.7-2.12 1.1-2.714.763c-.509-.339-2.29-1.7-3.053-1.442-.848.254-.678.848-2.035.763-1.357-.17-1.866-1.951-2.629-1.781s-1.187 1.272-2.29 1.187c-1.1 0-2.375-1.357-2.969-1.357s-.848.848-1.951.848c-1.187 0-2.12-2.036-3.732-1.866s-2.714 1.357-3.308 1.272c-.594 0-2.12-1.611-2.969-1.272s-1.272 1.272-1.7 1.272-1.951-1.272-2.884-1.018-.255.848-1.7 1.1c-1.442.17-1.272-1.187-2.629-.509-1.272.594-1.018 1.611-2.46 1.272s-1.1-1.611-2.205-1.272-1.018 1.781-1.7 1.7c-.678 0-1.357-1.187-2.12-.848-.763.424 0 1.1-1.1 1.187-1.018 0-1.272-1.1-2.714-.678s.254 1.527-1.611 1.7c-1.951.17-1.442-1.187-2.629-.763s-.509 2.036-1.1 1.951c-.594 0-1.7-1.866-2.544-1.187s-.678 1.527-1.272 1.527-1.7-.848-2.46-.763c-.763.17 0 1.272-.763 1.527-.848.17-1.357-.763-2.714-.255s-.424 1.781-1.018 1.866c-.594.17-1.018-1.018-2.036-.848s-.17 1.866-1.272 2.036c-1.187.17-2.46-1.018-3.053-.254-.509.763 1.018 2.035-.509 2.12-1.527 0-1.866-1.187-2.29-.509-.509.594.254 1.781-.339 1.866-.594 0-1.611-.848-2.12-.339s-.17 1.7-1.272 1.866-1.781.17-2.29.678l-.085.085h-2.537a24.358 24.358 0 0 1 3.732-2.884 85.012 85.012 0 0 1 34.349-12.128c16.962-2.205 39.438-.17 49.87 2.46 10.432 2.544 16.2 3.817 16.2 3.817l.254-1.1s-20.1-5.682-27.394-6.7c-7.294-.933-8.481-1.527-8.481-1.527s0-2.884-2.036-2.544c-2.036.254-3.562 2.544-5.343 1.866s-2.714-3.647-5.852-3.308c-3.138.424-3.053 3.647-5.174 3.138-2.205-.509-3.817-3.223-5.767-2.714s-3.562 3.647-6.191 3.647-3.986-3.138-6.022-2.035-1.781 3.986-4.241 3.647c-2.46-.254-2.46-2.035-4.919-1.357s-1.781 3.562-4.241 3.647c-2.46.17-3.986-1.611-5.343.17s.17 1.866-1.611 2.205c-1.781.254-2.29-.933-3.562 0s1.357 1.866-1.526 2.46c-2.884.509-2.29-.933-3.393-.17-1.1.848-2.46 2.629-3.053 2.036-.509-.509 1.781-3.308 8.057-6.361a100.628 100.628 0 0 1 34.943-10.177c15.775-1.527 17.386-1.187 17.386-1.187l-.254-2.544-4.834-.509-.854-3.572a6.055 6.055 0 0 1-5 2.884c-3.477 0-5.174-3.223-5.174-6.955a78.074 78.074 0 0 1 1.866-13.57 36.335 36.335 0 0 0 .848-6.361 12.406 12.406 0 0 0-5.513 5.174c-1.612 3.477-1.866 3.477-1.357 4.58s1.442 1.442.17 2.544-2.29 1.7-2.205 2.29c.17.594 2.12-1.187 3.223-.594s1.951 4.834.17 5.937c-1.7 1.1-3.817-2.46-4.071-1.187-.17 1.187.17 3.308 1.781 3.986s.763.763.933 1.866c.17 1.187 2.036 1.187 1.018 2.035s-5.767 1.018-5.682-1.866c0-2.884 1.612-12.213 3.647-16.962 1.951-4.665 2.12-5.682.339-6.022-1.781-.254-4.5 2.46-5.937 5-1.527 2.544-2.29 5-2.12 5.937.17.848.763.933.255 1.611s-1.7 1.611-1.866 2.884c-.17 1.187-.424 2.036.17 1.951.509 0 1.272-2.629 2.8-2.12s1.357 3.053.594 4.665a1.656 1.656 0 0 1-3.053.17c-.509-1.187-.848-1.951-1.187-1.187-.255.848-1.1 3.308.17 3.732s2.8-.424 2.714.848c0 1.187-.678 1.611-.17 2.629s-.339 2.46-2.035 2.036-3.138-2.29-2.29-7.888a62.924 62.924 0 0 1 4.325-14.5c1.1-2.29 1.272-2.375.594-2.375s-5 3.477-6.615 6.276a20.994 20.994 0 0 0-2.375 6.107c-.169.848 1.7 0 1.866 2.629.17 2.714-1.272 4.665-2.46 4.665s-1.442.933-.933 2.035 2.884-.933 3.223.17-.424 4.58-2.036 5.089-3.392.594-2.968-3.647 1.272-10.347 2.29-13.146 1.527-3.986 1.018-4.241c-.509-.17-3.223 1.272-3.732 3.732s-1.951 8.99-1.951 11.534.933 7.294-.509 7.718c-1.527.509-3.053-2.544-1.951-5.852a55.231 55.231 0 0 0 1.866-8.566c.339-1.951 1.951-4.41.679-4.41s-3.647 3.138-3.986 5.682a16.427 16.427 0 0 0 0 5c0 2.035-.679 3.308-.679 5s1.018 4.325 0 3.986c-1.1-.424-1.187-1.611-1.187-2.968s.848-5.767 0-5.343c-.848.509-.848 3.9-1.611 6.361s-.594 5.258-1.951 4.749-.254-6.615.848-10.856c1.018-4.325 4.919-10.771 10.517-15.605a53.045 53.045 0 0 1 12.3-8.142c2.714-1.357 4.665-2.544 4.665-2.544a4.865 4.865 0 0 1 1.187-3.477 28.234 28.234 0 0 1 2.46-2.205 7.663 7.663 0 0 1 .933-3.647 20.1 20.1 0 0 1 2.036-2.629v-11.2s-3.393-.848-3.138-4.071c.17-3.223 2.544-3.647 2.544-3.647s.848-3.817 1.951-5.343c1.187-1.527 4.834-2.968 5.173-5 .254-2.035 1.272-8.736 1.1-12.891-.17-4.071.509-10.517 3.053-10.517s1.951 2.544 2.629 4.241a37 37 0 0 1 1.187 10.266c-.254 2.036-.17 1.781.17 4.5.424 2.8.424.509.339 2.884 0 2.29-.763 2.035.509 3.477s2.968 2.205 3.053 3.223c.17 1.1 0 2.544.848 3.477.933.848 4.156 3.053 3.732 5.513s-1.781 3.308-1.781 4.41-.339 9.329.339 10.941 2.46.678 2.968 2.544 0 3.138 1.951 3.562c1.866.424 2.544-1.187 3.053.848s2.629 3.732 2.629 4.071-5.767-1.611-8.736-1.951c-3.053-.339-3.138 1.187-4.5.763s-3.053-1.018-4.495-.424c-1.527.594-2.036 3.308-2.205 6.446-.17 3.223 0 7.8.594 8.142.509.339 2.968.17 2.968 3.477s-2.884 5.682-2.884 5.682.848 1.866 2.544 1.272c1.611-.594 2.035-4.5 2.29-6.531a14.829 14.829 0 0 0 0-3.138 21.277 21.277 0 0 1 1.272 7.039c-.17 3.138 0 5.089.848 4.41.763-.678.763-9.16 0-14.842-.679-5.682-2.544-10.177-.17-9.838 2.29.424 6.7 10.432 7.8 12.722s1.7 3.477 2.29 3.223-2.714-8.905-3.817-12.043c-1.187-3.138-2.46-4.5-.933-4.071s8.227 8.905 8.99 9.245-.17-2.629-1.187-4.325c-1.018-1.611-1.611-2.629 0-2.46s14.757 5.852 19.422 12.637c4.749 6.785 7.8 11.2 8.4 11.534.509.339 2.29.848 2.036 1.781-.255.848-2.544 1.187-1.781 2.884a6.922 6.922 0 0 1 .933 3.138c.17 1.527.17 3.9.933 4.41s4.665 1.527 5.258 3.986 3.308 2.629 3.562 4.665c.254 1.951.254 3.647 2.375 5.343a13.925 13.925 0 0 1 2.46 2.544h-5.258a2.881 2.881 0 0 0-1.018-1.018Zm-53.432-69.122c.17.763 0 1.018.848 1.187a1.233 1.233 0 0 0 1.442-1.187c0-.678 0-5.682-.17-6.446a1.4 1.4 0 0 0-1.436-1.269c-.679 0-.848 1.018-.848 1.018l.169 6.785Zm-3.392.679c.933.254 1.7.17 1.7-.679s.255-5.852.17-7.039c0-1.187-.17-1.866-1.272-2.035a1.8 1.8 0 0 0-1.7.679v7.8c0 .68.169 1.019 1.102 1.274ZM113.394 76.67a3.2 3.2 0 0 0 1.7 0c.933-.254 1.442.17 2.12 2.205.679 2.12 0 4.5-1.1 5.089-1.187.594-.933 0-2.375 0-1.357 0-.255 1.442.594 2.205s1.781.594 3.647-1.1 1.272-4.5 1.1-5.767c-.254-1.272 1.1-.678 1.611-2.12s.848-9.838.678-11.45c-.17-1.7 0-2.544-1.866-2.629-1.951 0-3.647.509-4.325 2.12s-1.866 11.365-1.866 11.365Zm-6.361-14.588c-.17 1.272-.594 1.611 1.272 1.272s3.308-2.29 4.665-1.866.254 1.866 2.205 1.187c1.951-.763 4.58-1.272 5.343-1.781a1.744 1.744 0 0 0-1.781-1.781 24.9 24.9 0 0 0-6.615.678c-2.629.678-5 1.1-5.089 2.29ZM119.5 29.769c-1.1-.509-2.375-.17-3.986.254s-2.884.848-2.884.848-1.1.339-.763 1.1.254 1.018 1.357.763c1.1-.17 1.187-.933 3.223-1.1s2.968.594 3.647 0c.679-.678.339-1.357-.763-1.866Zm1.527 4.156c-.933-.424-3.223-.254-5.852.254a19.712 19.712 0 0 0-5.428 2.205c-.763.254-1.527 1.781-.254 2.29s2.12-1.018 4.58-1.781 4.495-.594 6.361-.848 1.527-1.611.594-2.035Zm-9.16 15.266c0 1.357.339 2.12 1.272 2.205a1.922 1.922 0 0 0 1.866-1.7c0-.848.17-6.106 0-7.209s-.763-1.781-1.781-1.7a1.721 1.721 0 0 0-1.442 1.1v7.294Zm5.682-.17c0 1.357 2.375.933 2.544-.17a46.666 46.666 0 0 0-.424-8.312c-.254-1.272-2.375 0-2.375 0 .001.761.171 7.125.253 8.482Zm.254 5a24.25 24.25 0 0 0-7.972 1.611c-2.036.848-.424 2.8.763 2.714 1.187-.17 3.223-1.1 5-1.187h4.495c1.187 0 1.866 0 2.375-1.1.424-1.187-2.036-2.036-4.5-2.036Zm44.7 47.071c1.1 0 .933-.933 0-1.866s-2.884-.17-2.968.763c-.17.848 2.968 1.187 2.968 1.187Zm-14.164.254s3.562.254 4.241.254 1.018 0 1.187-1.018c.17-1.1-2.884-1.442-4.665-1.442s-.763 2.205-.763 2.205Zm-12.722-7.972c-.17-.763-3.393-1.442-5.937-1.1-2.46.339 0 1.866 0 1.866s3.9.339 4.241.254c1.866 0 1.866-.254 1.781-1.1Zm2.968-10.941c-1.357-.509-.17 6.276-.17 6.276s.763.678 1.866-.678c1.016-1.268-.341-5.085-1.698-5.594Zm5.68 11.367c-.254-.763-3.393-1.187-4.834-1.187s-1.951 1.442-1.1 1.951 5.174.594 5.513.594c.933 0 .678-.594.339-1.357Zm.424 4.919c-2.12-.594-7.888-1.611-7.039-.255.848 1.272 4.665 2.29 5.682 2.29 0 .003 3.393-1.439 1.357-2.033Zm4.071-19.337c-1.1-.594-1.611 0-1.1 1.781.509 1.7 2.12 7.209 2.12 7.718s1.781-.254 1.866-1.442c0-1.272-1.781-7.379-2.884-7.972Zm4.75-3.477c-.848-.679-1.781.339-1.781.339s4.665 9.669 5.428 10.347c.763.763 1.612 1.1 1.866 0 .254-1.018-4.749-10.177-5.513-10.856Zm12.891 21.2c-.254-.509-4.495-2.46-5.937-2.46s-1.781.848-.848 1.272c.933.339 6.615 2.205 6.615 2.205a.846.846 0 0 0 .17-.933Zm1.781 8.481a1.991 1.991 0 0 0-1.951 1.187c.509 1.018 2.29 1.272 3.986.763 1.782-.418-.678-1.775-2.035-1.945Z" fill="#e51e25"/><path data-name="Path 12967" d="M120.349 109.662c13.315 0 41.3 4.665 48 6.87 3.138 1.018 6.191 2.205 8.481 3.138h-7.209c-1.357-1.1-5.937-3.477-6.276-1.357a8.788 8.788 0 0 1-.085 1.357h-1.7a9.92 9.92 0 0 0-.085-2.036c-.17-.848-4.241-2.968-5.852-2.12s-1.442 1.611-1.442 3.986v.254h-1.442a21.411 21.411 0 0 0-.17-4.071c-.509-1.018-6.022-3.732-7.379-1.442-.509.933-.679 3.138-.763 5.428h-1.7v-5.089c-.17-1.018-2.29-2.205-4.495-2.205-2.12 0-4.919-.424-5.174 1.527-.085.848-.085 3.308-.085 5.852h-1.866v-6.276c-.17-.763-2.036-2.205-5.089-1.951-3.053.17-4.326.509-4.495 2.8v5.428h-1.951a42.005 42.005 0 0 0-.17-5.767c-.17-1.018-1.951-2.205-4.749-1.866-2.8.254-4.5.848-4.834 2.375-.085.679-.17 2.884-.254 5.343h-1.781c0-2.544-.17-4.665-.17-5.089-.17-1.1-.17-1.866-1.951-1.866s-5 .679-5.937 1.866-.678 1.781-.848 3.393v1.7h-1.866v-3.053c0-1.187-1.357-1.951-3.732-1.272s-3.9 1.951-3.986 3.817v.594h-1.527v-.679c0-.594-1.611-1.442-3.223-.678a3.9 3.9 0 0 0-1.7 1.357h-7.276a72.162 72.162 0 0 1 9.923-4.071c10.771-3.392 21.8-6.022 35.112-6.022Z" fill="#e51e25"/></g><path data-name="Rectangle 1376" fill="#e51e25" d="M0 119.076h253.334v1.611H0z"/><path data-name="Rectangle 1377" fill="#e51e25" d="M0 179.293h253.334v1.611H0z"/></g></svg>